<?xml version="1.0" standalone="no"?>
<!DOCTYPE svg PUBLIC "-//W3C//DTD SVG 1.1//EN" "http://www.w3.org/Graphics/SVG/1.1/DTD/svg11.dtd" >
<svg xmlns="http://www.w3.org/2000/svg" xmlns:xlink="http://www.w3.org/1999/xlink" version="1.1">
<metadata>
Created by FontForge 20170731 at Wed May  8 11:34:43 2013
 By Aleksey,,,
Zarathos (c) (Neale Davidson). 2012. All Rights Reserved
</metadata>
<defs>
<font id="Zarathos" horiz-adv-x="1200" >
  <font-face 
    font-family="Zarathos"
    font-weight="400"
    font-stretch="normal"
    units-per-em="2048"
    panose-1="2 0 5 0 0 0 0 0 0 0"
    ascent="1638"
    descent="-410"
    x-height="1040"
    cap-height="1300"
    bbox="-250 -300 2048 1928"
    underline-thickness="150"
    underline-position="-442"
    unicode-range="U+0020-F002"
  />
<missing-glyph horiz-adv-x="1650" 
d="M0 200v1100q0 200 200 200h1100q200 0 200 -200v-1100q0 -200 -200 -200h-1100q-200 0 -200 200zM1475 201v1099q0 175 -175 175h-1100q-174 0 -175 -175v-1100q1 -175 175 -175h1101q174 0 174 176z" />
    <glyph glyph-name=".notdef" horiz-adv-x="1650" 
d="M0 200v1100q0 200 200 200h1100q200 0 200 -200v-1100q0 -200 -200 -200h-1100q-200 0 -200 200zM1475 201v1099q0 175 -175 175h-1100q-174 0 -175 -175v-1100q1 -175 175 -175h1101q174 0 174 176z" />
    <glyph glyph-name=".null" horiz-adv-x="0" 
 />
    <glyph glyph-name="nonmarkingreturn" horiz-adv-x="508" 
 />
    <glyph glyph-name="space" unicode=" " horiz-adv-x="600" 
 />
    <glyph glyph-name="space" unicode="&#xa0;" horiz-adv-x="600" 
 />
    <glyph glyph-name="exclam" unicode="!" horiz-adv-x="600" 
d="M500 350v-250l-100 -100h-300v250l100 100h300zM500 1301v-801h-400v701l-100 100h500z" />
    <glyph glyph-name="quotedbl" unicode="&#x22;" horiz-adv-x="1000" 
d="M200 950h-200v250l100 100h300v-500q0 -150 -150 -150h-250v250l200 -100v150zM700 950h-200v250l100 100h300v-500q0 -150 -150 -150h-250v250l200 -100v150z" />
    <glyph glyph-name="numbersign" unicode="#" horiz-adv-x="1300" 
d="M100 550v150h-100v150h100v200l-100 100h500v-300h200v299l401 1v-300h99v-150h-99v-150h99v-150h-99v-151l100 -99h-500v250h-201v-250h-400v250h-100v150h100zM701 700h-201v-150h201v150z" />
    <glyph glyph-name="dollar" unicode="$" 
d="M350 1150v150h400v-150h351v-350l-400 200h-299l-1 -300l550 1q149 -1 149 -151v-250q0 -150 -150 -151h-200v-149h-400v150h-350v350l400 -200l300 -1l1 251h-550q-151 0 -151 150l1 300q1 149 150 150h199z" />
    <glyph glyph-name="percent" unicode="%" horiz-adv-x="1700" 
d="M1000 149l200 1l1 401h-201v-402zM401 749l199 1v400h-200zM600 600h-449q-151 0 -151 150l1 400q1 149 151 150h1148l-100 -100l-200 -500h451q149 0 149 -151v-399q-1 -150 -151 -150h-1149l100 100z" />
    <glyph glyph-name="ampersand" unicode="&#x26;" 
d="M350 1150v150h400v-150h350v-350l-400 200h-300v-300h300v-150h-300v-250h300l400 200v-350h-350v-150h-400v150h-200q-150 0 -150 150v250q0 90 250 101q-250 10 -250 99v250q0 150 149 150h201z" />
    <glyph glyph-name="quotesingle" unicode="'" horiz-adv-x="500" 
d="M200 950h-200v250l100 100h300v-500q0 -150 -150 -150h-250v250l200 -100v150z" />
    <glyph glyph-name="parenleft" unicode="(" horiz-adv-x="900" 
d="M400 0l400 199v-349h-650q-150 0 -150 150v1300q0 150 150 150h650v-350l-400 200v-1300z" />
    <glyph glyph-name="parenright" unicode=")" horiz-adv-x="900" 
d="M400 1300l-400 -200v350h650q150 0 150 -150v-1300q0 -150 -150 -150h-650v349l400 -199v1300z" />
    <glyph glyph-name="asterisk" unicode="*" horiz-adv-x="1350" 
d="M962 875l87 -175l101 -100h-450l-75 184l-75 -184h-450l101 100l88 175h-289v150h287l-87 174l-100 101h450l75 -224l75 224h450l-100 -101l-87 -174h287v-150h-288z" />
    <glyph glyph-name="plus" unicode="+" horiz-adv-x="900" 
d="M200 550h-200v150h200v200l-100 100h500v-300h200v-150h-200v-301h-400v301z" />
    <glyph glyph-name="comma" unicode="," horiz-adv-x="500" 
d="M200 0h-200v250l100 100h300v-500q0 -150 -150 -150h-250v250l200 -100v150z" />
    <glyph glyph-name="hyphen" unicode="-" horiz-adv-x="900" 
d="M0 550v150h800v-150h-800z" />
    <glyph glyph-name="hyphen" unicode="&#xad;" horiz-adv-x="900" 
d="M0 550v150h800v-150h-800z" />
    <glyph glyph-name="period" unicode="." horiz-adv-x="500" 
d="M400 350v-250l-100 -100h-300v250l100 100h300z" />
    <glyph glyph-name="slash" unicode="/" horiz-adv-x="1150" 
d="M450 -1h-450l101 100l499 1201h450l-100 -100z" />
    <glyph glyph-name="zero" unicode="0" 
d="M151 0q-151 0 -151 150v1000q1 149 151 150h800q149 0 149 -151l1 -999q-1 -150 -151 -150h-799zM400 149l301 1v1001h-301v-1002z" />
    <glyph glyph-name="one" unicode="1" horiz-adv-x="700" 
d="M500 1300v-1200l100 -100h-600l100 100v1100l-100 100h500z" />
    <glyph glyph-name="two" unicode="2" 
d="M699 700v450h-298l-401 -200v350h951q148 -1 149 -150v-450q-1 -149 -150 -150h-550l1 -401l299 1l400 200v-350h-1100v550q0 150 150 150h549z" />
    <glyph glyph-name="three" unicode="3" 
d="M700 700v450h-300l-400 -200v350h951q149 0 149 -150v-400q0 -89 -250 -99q250 -11 250 -101v-400q0 -150 -150 -150h-950v350l400 -200h300v400h-300v150h300z" />
    <glyph glyph-name="four" unicode="4" horiz-adv-x="1400" 
d="M1200 250v-150l100 -100h-500v250h-700v950l-100 100h500v-900h300v900h500l-100 -100v-800h100v-150h-100z" />
    <glyph glyph-name="five" unicode="5" horiz-adv-x="1300" 
d="M1051 702q149 -1 150 -151v-400q-1 -150 -151 -151l-949 1v350l399 -200l300 -1l1 400h-700v650l-100 100h1200v-349l-401 200h-299v-450z" />
    <glyph glyph-name="six" unicode="6" 
d="M400 701l550 1q149 -1 150 -151v-400q-1 -150 -151 -151h-799q-150 0 -150 151v999q0 150 150 150h950v-349l-401 200h-299v-450zM400 151l299 -1l1 400h-300v-399z" />
    <glyph glyph-name="seven" unicode="7" horiz-adv-x="1300" 
d="M385 700l315 450h-300l-400 -200v350h1100v-150l-315 -450h315v-150h-420l-380 -550h-300v150l280 400h-280v150h385z" />
    <glyph glyph-name="eight" unicode="8" 
d="M400 700h300v450h-299zM699 150l1 400h-299l-1 -400h299zM150 0q-150 0 -150 150v400q0 90 300 100q-300 10 -300 100v400q0 150 201 150h750q149 0 149 -150v-400q0 -89 -250 -99q250 -11 250 -101v-400q0 -150 -150 -150h-800z" />
    <glyph glyph-name="nine" unicode="9" 
d="M700 599l-550 -1q-149 1 -150 151v400q1 150 151 151h799q150 0 150 -150v-1000q0 -150 -150 -150h-950v349l401 -200h299v450zM700 1149l-299 1l-1 -400h300v399z" />
    <glyph glyph-name="colon" unicode=":" horiz-adv-x="500" 
d="M400 350v-250l-100 -100h-300v250l100 100h300zM400 800v-250l-100 -100h-300v250l100 100h300z" />
    <glyph glyph-name="semicolon" unicode=";" horiz-adv-x="500" 
d="M400 800v-250l-100 -100h-300v250l100 100h300zM200 0h-200v250l100 100h300v-500q0 -150 -150 -150h-250v250l200 -100v150z" />
    <glyph glyph-name="semicolon" unicode="&#x37e;" horiz-adv-x="500" 
d="M400 800v-250l-100 -100h-300v250l100 100h300zM200 0h-200v250l100 100h300v-500q0 -150 -150 -150h-250v250l200 -100v150z" />
    <glyph glyph-name="less" unicode="&#x3c;" horiz-adv-x="850" 
d="M0 650l250 500h450l-100 -101l-150 -349l-100 -49l100 -52l149 -349l101 -100h-450z" />
    <glyph glyph-name="equal" unicode="=" horiz-adv-x="900" 
d="M0 700v150h800v-150h-800zM0 400v150h800v-150h-800z" />
    <glyph glyph-name="greater" unicode="&#x3e;" horiz-adv-x="850" 
d="M450 150h-450l101 100l149 349l100 52l-100 49l-150 349l-100 101h450l250 -500z" />
    <glyph glyph-name="question" unicode="?" 
d="M699 700v450h-299l-400 -200v350h951q148 -1 149 -150v-450q-1 -149 -150 -150h-200v-50h-400v50q0 150 150 150h199zM750 350v-250l-100 -100h-300v250l100 100h300z" />
    <glyph glyph-name="at" unicode="@" horiz-adv-x="1500" 
d="M899 549l101 1l1 400l-103 1zM1000 1100v50h-600v-1000h600l400 199v-349h-1250q-150 0 -150 150v1000q0 150 150 150h1100q150 0 150 -150v-350h-1l1 -250q-1 -150 -151 -150h-599q-150 0 -150 150v400q0 150 149 150h351z" />
    <glyph glyph-name="A" unicode="A" horiz-adv-x="1400" 
d="M500 550v-400q0 -150 -164 -150h-336l100 100v1050q0 149 150 150h1050l-100 -100v-1200h-400v550h-300zM800 700v450h-300v-450h300z" />
    <glyph glyph-name="B" unicode="B" horiz-adv-x="1350" 
d="M500 700h300v450h-299zM799 150l1 400h-299l-1 -400h299zM0 0l100 100l-1 1100l-99 100h1001q149 0 149 -150v-400q0 -99 -250 -99q250 -1 250 -101v-400q0 -150 -150 -150h-1000z" />
    <glyph glyph-name="C" unicode="C" 
d="M400 150h300l400 199v-349h-950q-150 0 -150 150v1000q0 150 150 150h950v-350l-400 200h-300v-1000z" />
    <glyph glyph-name="D" unicode="D" horiz-adv-x="1300" 
d="M0 0l100 100v1100l-100 100h1050q149 0 150 -151l1 -999q-1 -150 -152 -150h-1049zM499 149l301 1v1001h-301v-1002z" />
    <glyph glyph-name="E" unicode="E" horiz-adv-x="1300" 
d="M500 550v-400h300l400 199v-349h-1200l100 100v1100l-100 100h1200v-350l-400 200h-300v-450h300v-150h-300z" />
    <glyph glyph-name="F" unicode="F" horiz-adv-x="1300" 
d="M500 550v-550h-500l100 100v1100l-100 100h1200v-350l-400 200h-300v-450h300v-150h-300z" />
    <glyph glyph-name="G" unicode="G" 
d="M1100 0h-950q-150 0 -150 150v1000q0 150 150 150h950v-350l-400 200h-300v-1000h300v450l-100 100h500v-700z" />
    <glyph glyph-name="H" unicode="H" horiz-adv-x="1400" 
d="M800 550h-300v-550h-500l100 100v1100l-100 100h500v-600h300v600h500l-100 -100v-1100l100 -100h-500v550z" />
    <glyph glyph-name="I" unicode="I" horiz-adv-x="700" 
d="M600 1300l-100 -100v-1100l100 -100h-600l100 100v1100l-100 100h600z" />
    <glyph glyph-name="J" unicode="J" horiz-adv-x="1400" 
d="M336 700q164 0 164 -150v-400h300v1149l400 1v-1200l100 -100h-1050q-149 0 -150 150v450l-100 100h336z" />
    <glyph glyph-name="K" unicode="K" horiz-adv-x="1350" 
d="M800 1300l450 -1l-100 -100l-200 -500l-100 -49l100 -52l199 -499l101 -100h-450l-199 551h-100l-1 -550h-500l100 100l-1 1100l-99 100h500v-250h1l-1 -350h100z" />
    <glyph glyph-name="L" unicode="L" horiz-adv-x="1300" 
d="M100 1200l-100 100h500v-1150h300l400 199v-349h-1200l100 100v1100z" />
    <glyph glyph-name="M" unicode="M" horiz-adv-x="1900" 
d="M1451 0q-151 0 -152 150v1000h-199v-1150l-400 1v1149h-200v-1151l-400 2v1200l-100 99l1550 1q150 -1 150 -152l-1 -1049l102 -100h-350z" />
    <glyph glyph-name="N" unicode="N" horiz-adv-x="1400" 
d="M964 0q-164 0 -164 150v1000h-300v-1150h-400v1200l-100 100h1050q150 0 150 -150l1 -1050l99 -100h-336z" />
    <glyph glyph-name="O" unicode="O" 
d="M151 0q-151 0 -151 150v1000q1 149 151 150h800q149 0 149 -151l1 -999q-1 -150 -151 -150h-799zM400 149l301 1v1001h-301v-1002z" />
    <glyph glyph-name="P" unicode="P" horiz-adv-x="1300" 
d="M500 550v-550h-500l100 100v1100l-100 100h1050q150 0 150 -150v-450q0 -150 -150 -150h-550zM800 1150h-300v-450h300v450z" />
    <glyph glyph-name="Q" unicode="Q" 
d="M400 149l301 1v1001h-301v-1002zM350 0h-199q-151 0 -151 150v1000q1 149 151 150h800q149 0 149 -151l1 -999q-1 -150 -151 -150h-200v-200l100 -100h-350q-150 0 -150 150v150z" />
    <glyph glyph-name="R" unicode="R" horiz-adv-x="1300" 
d="M601 550h-100l-1 -550h-500l100 100l-1 1100l-99 100h1051q149 0 149 -150v-400q0 -99 -200 -100l-150 1l100 -52l199 -499l101 -100l-450 -1zM500 700h300v450l-299 1z" />
    <glyph glyph-name="S" unicode="S" 
d="M951 701q149 -1 149 -151v-400q0 -150 -150 -151l-950 1v350l400 -200l300 -1l1 401h-550q-151 0 -151 150v450q1 149 150 150h950v-350l-400 200h-299v-450z" />
    <glyph glyph-name="T" unicode="T" horiz-adv-x="1300" 
d="M800 100l100 -100h-600l100 100v1050l-400 -200v350h1200v-350l-400 200v-1050z" />
    <glyph glyph-name="U" unicode="U" horiz-adv-x="1400" 
d="M336 1300q164 0 164 -150v-1000h300v1149l400 1v-1200l100 -100h-1050q-149 0 -150 150v1050l-100 100h336z" />
    <glyph glyph-name="V" unicode="V" horiz-adv-x="1350" 
d="M625 0l-325 200l-200 999l-100 101h450l175 -899l175 900l450 -1l-100 -100l-200 -999z" />
    <glyph glyph-name="W" unicode="W" horiz-adv-x="1900" 
d="M350 1300q150 0 151 -150v-999h200v1149h400v-1149h199v1149h401l-1 -1200l101 -99l-1550 -2q-150 3 -150 152v1049l-101 100h350z" />
    <glyph glyph-name="X" unicode="X" horiz-adv-x="1350" 
d="M625 484l-175 -485h-450l101 100l199 499l100 52l-100 49l-200 500l-100 100l450 1l175 -524l175 525l450 -1l-100 -100l-200 -500l-100 -49l100 -52l199 -499l101 -100h-450z" />
    <glyph glyph-name="Y" unicode="Y" horiz-adv-x="1350" 
d="M425 632l-125 67l-200 500l-100 100l450 1l175 -524l175 525l450 -1l-100 -100l-200 -500l-125 -67v-533l100 -100h-600l100 100v532z" />
    <glyph glyph-name="Z" unicode="Z" horiz-adv-x="1300" 
d="M385 700l315 450h-300l-400 -200v350h1100v-150l-315 -450h315v-150h-420l-280 -400h300l400 199v-349h-1100v150l280 400h-280v150h385z" />
    <glyph glyph-name="bracketleft" unicode="[" horiz-adv-x="900" 
d="M400 0l400 199v-349h-800v1600h800v-350l-400 200v-1300z" />
    <glyph glyph-name="backslash" unicode="\" horiz-adv-x="1150" 
d="M100 1200l-100 100h450l499 -1201l101 -100h-450z" />
    <glyph glyph-name="bracketright" unicode="]" horiz-adv-x="900" 
d="M400 1300l-400 -200v350h800v-1600h-800v349l400 -199v1300z" />
    <glyph glyph-name="asciicircum" unicode="^" horiz-adv-x="1150" 
d="M525 1636l-75 -186h-450l101 100l99 200l325 178l325 -177l99 -201l101 -100h-450z" />
    <glyph glyph-name="underscore" unicode="_" horiz-adv-x="900" 
d="M0 -300v150h800v-150h-800z" />
    <glyph glyph-name="grave" unicode="`" horiz-adv-x="800" 
d="M0 1600v200h300l400 -150v-200h-550q-150 0 -150 150z" />
    <glyph glyph-name="a" unicode="a" horiz-adv-x="1120" 
d="M400 440v-320q0 -120 -131 -120h-269l80 80v840q0 119 120 120h840l-80 -80v-960h-320v440h-240zM640 560v360h-240v-360h240z" />
    <glyph glyph-name="b" unicode="b" horiz-adv-x="1080" 
d="M400 560h240v360h-240v-360zM639 120l1 320h-239l-1 -320h239zM0 0l80 80l-1 880l-79 80h801q119 0 119 -120v-320q0 -79 -200 -79q200 -1 200 -81v-320q0 -120 -120 -120h-800z" />
    <glyph glyph-name="c" unicode="c" horiz-adv-x="960" 
d="M320 120h240l320 159v-279h-760q-120 0 -120 120v800q0 120 120 120h760v-280l-320 160h-240v-800z" />
    <glyph glyph-name="d" unicode="d" horiz-adv-x="1040" 
d="M0 0l80 80v880l-80 80h840q119 0 120 -120l1 -800q-1 -120 -122 -120h-839zM399 119l241 1v801h-241v-802z" />
    <glyph glyph-name="e" unicode="e" horiz-adv-x="1040" 
d="M400 440v-320h240l320 159v-279h-960l80 80v880l-80 80h960v-280l-320 160h-240v-360h240v-120h-240z" />
    <glyph glyph-name="f" unicode="f" horiz-adv-x="1040" 
d="M400 440v-440h-400l80 80v880l-80 80h960v-280l-320 160h-240v-360h240v-120h-240z" />
    <glyph glyph-name="g" unicode="g" horiz-adv-x="960" 
d="M880 0h-760q-120 0 -120 120v800q0 120 120 120h760v-280l-320 160h-240v-800h240v360l-80 80h400v-560z" />
    <glyph glyph-name="h" unicode="h" horiz-adv-x="1120" 
d="M640 440h-240v-440h-400l80 80v880l-80 80h400v-480h240v480h400l-80 -80v-880l80 -80h-400v440z" />
    <glyph glyph-name="i" unicode="i" horiz-adv-x="560" 
d="M480 1040l-80 -80v-880l80 -80h-480l80 80v880l-80 80h480z" />
    <glyph glyph-name="j" unicode="j" horiz-adv-x="1120" 
d="M269 560q131 0 131 -120v-320h240v919l320 1v-960l80 -80h-840q-119 0 -120 120v360l-80 80h269z" />
    <glyph glyph-name="k" unicode="k" horiz-adv-x="1080" 
d="M640 1040l360 -1l-80 -80l-160 -400l-80 -39l80 -42l159 -399l81 -80h-360l-159 441h-80l-1 -440h-400l80 80l-1 880l-79 80h400v-200h1l-1 -280h80z" />
    <glyph glyph-name="l" unicode="l" horiz-adv-x="1040" 
d="M80 960l-80 80h400v-920h240l320 160v-280h-960l80 80v880z" />
    <glyph glyph-name="m" unicode="m" horiz-adv-x="1520" 
d="M1161 0q-121 0 -122 120v800h-159v-920h-320v920h-160v-920h-320v960l-80 80l1240 1q120 -1 120 -122v-839l80 -80h-279z" />
    <glyph glyph-name="n" unicode="n" horiz-adv-x="1120" 
d="M771 0q-131 0 -131 120v800h-240v-920h-320v960l-80 80h840q120 0 120 -120l1 -840l79 -80h-269z" />
    <glyph glyph-name="o" unicode="o" horiz-adv-x="960" 
d="M120 0q-120 0 -120 120v800q1 119 120 120h641q119 0 119 -120l1 -800q-1 -120 -121 -120h-640zM320 119l241 1l-1 801h-240v-802z" />
    <glyph glyph-name="p" unicode="p" horiz-adv-x="1040" 
d="M400 440v-440h-400l80 80v880l-80 80h840q120 0 120 -120v-360q0 -120 -120 -120h-440zM640 920h-240v-360h240v360z" />
    <glyph glyph-name="q" unicode="q" horiz-adv-x="960" 
d="M320 119l241 1l-1 801h-240v-802zM280 0h-159q-121 0 -121 120v800q1 119 121 120h640q119 0 119 -121l1 -799q-1 -120 -121 -120h-160v-160l80 -80h-280q-120 0 -120 120v120z" />
    <glyph glyph-name="r" unicode="r" horiz-adv-x="1040" 
d="M481 440h-80l-1 -440h-400l80 80l-1 880l-79 80h841q119 0 119 -120v-320q0 -80 -160 -80l-120 1l80 -42l159 -399l81 -80l-360 -1zM400 560h240v360l-240 1v-361z" />
    <glyph glyph-name="s" unicode="s" horiz-adv-x="960" 
d="M761 560q119 0 119 -120v-320q0 -120 -120 -121l-760 1v280l320 -160l240 -1l1 321h-441q-120 0 -120 120v360q1 119 120 120h760v-280l-320 160h-239v-360h440z" />
    <glyph glyph-name="t" unicode="t" horiz-adv-x="1040" 
d="M640 80l80 -80h-480l80 80v840l-320 -160v280h960v-280l-320 160v-840z" />
    <glyph glyph-name="u" unicode="u" horiz-adv-x="1120" 
d="M269 1040q131 0 131 -120v-800h240v919l320 1v-960l80 -80h-840q-119 0 -120 120v840l-80 80h269z" />
    <glyph glyph-name="v" unicode="v" horiz-adv-x="1080" 
d="M500 0l-260 160l-160 799l-80 81h360l140 -720l140 721l360 -1l-80 -80l-160 -799z" />
    <glyph glyph-name="w" unicode="w" horiz-adv-x="1520" 
d="M280 1040q120 0 121 -120v-800h159l1 920h320v-920h159v920h320v-960l80 -80h-1239q-120 1 -121 121l1 839l-81 80h280z" />
    <glyph glyph-name="x" unicode="x" horiz-adv-x="1080" 
d="M500 387l-140 -388h-360l81 80l159 399l80 42l-80 39l-160 400l-80 80l360 1l140 -420l140 421l360 -1l-80 -80l-160 -400l-80 -39l80 -42l159 -399l81 -80h-360z" />
    <glyph glyph-name="y" unicode="y" horiz-adv-x="1080" 
d="M340 506l-100 53l-160 400l-80 80l360 1l140 -419l140 420l360 -1l-80 -80l-160 -400l-100 -54v-426l80 -80h-480l80 80v426z" />
    <glyph glyph-name="z" unicode="z" horiz-adv-x="1040" 
d="M308 560l252 360h-240l-320 -160v280h880v-120l-252 -360h252v-120h-336l-224 -320h240l320 159v-279h-880v120l224 320h-224v120h308z" />
    <glyph glyph-name="braceleft" unicode="{" horiz-adv-x="1000" 
d="M100 700v600q0 150 150 150h650v-350l-400 200v-550q0 -89 -250 -99q250 -11 250 -101v-550l400 200v-350h-650q-150 0 -150 150v550h-100v150h100z" />
    <glyph glyph-name="bar" unicode="|" horiz-adv-x="700" 
d="M599 1450l-100 -100l1 -1400l100 -100h-600l100 100l-1 1400l-100 100h600z" />
    <glyph glyph-name="braceright" unicode="}" horiz-adv-x="1000" 
d="M900 700v-150h-100v-550q0 -150 -150 -150h-650v350l400 -200v550q0 90 250 101q-250 10 -250 99v550l-400 -200v350h650q150 0 150 -150v-600h100z" />
    <glyph glyph-name="asciitilde" unicode="~" horiz-adv-x="1300" 
d="M864 1450q-164 0 -164 150v100h-200v-250h-400v300l-100 100h950q150 0 150 -150v-151l100 -99h-336z" />
    <glyph glyph-name="exclamdown" unicode="&#xa1;" horiz-adv-x="600" 
d="M0 951v250l100 100h300v-250l-100 -100h-300zM0 0v801h400v-701l100 -100h-500z" />
    <glyph glyph-name="cent" unicode="&#xa2;" 
d="M350 1150v150h400v-150h350v-350l-400 200h-300v-700h300l400 199v-349h-350v-150h-400v150h-200q-150 0 -150 150v700q0 150 150 150h200z" />
    <glyph glyph-name="sterling" unicode="&#xa3;" horiz-adv-x="1300" 
d="M100 700v450q0 150 150 150h950v-350l-400 200h-300v-450h300v-150h-300v-400h300l400 199v-349h-1200l100 100v450h-100v150h100z" />
    <glyph glyph-name="currency" unicode="&#xa4;" horiz-adv-x="1350" 
d="M475 449l301 1v402h-301v-403zM1068 304l81 -204l101 -100h-450l-108 300h-133l-109 -301h-450l101 100l82 205q-108 19 -108 146v401q1 125 106 146l-81 202l-100 100l450 1l100 -299h150l100 300l450 -1l-100 -100l-81 -203q106 -20 106 -147l1 -400q-1 -127 -108 -146
z" />
    <glyph glyph-name="yen" unicode="&#xa5;" horiz-adv-x="1350" 
d="M425 600v32l-125 67l-200 500l-100 100l450 1l175 -524l175 525l450 -1l-100 -100l-200 -500l-125 -67v-33h200v-150h-200v-150h200v-150h-200v-50l100 -100h-600l100 100v50h-200v150h200v150h-200v150h200z" />
    <glyph glyph-name="brokenbar" unicode="&#xa6;" horiz-adv-x="700" 
d="M99 700v650l-100 100h600l-100 -100v-650h-400zM500 550v-600l100 -100h-600l100 100v600h400z" />
    <glyph glyph-name="section" unicode="&#xa7;" 
d="M400 449l301 1l1 401h-301zM0 1300q1 149 150 150h950v-350l-400 200h-299v-300h551q149 0 149 -151l-1 -849q0 -150 -150 -151l-950 1v350l400 -200l300 -1l1 301h-550q-151 0 -151 150v850z" />
    <glyph glyph-name="dieresis" unicode="&#xa8;" 
d="M400 1800v-250l-100 -100h-300v250l100 100h300zM1100 1800v-250l-100 -100h-300v250l100 100h300z" />
    <glyph glyph-name="copyright" unicode="&#xa9;" horiz-adv-x="1075" 
d="M450 725h75l200 100v-175h-400q-75 0 -75 75v375q0 75 75 75h400v-175l-200 100h-75v-375zM75 500q-75 0 -75 75v650q0 75 75 75h825q75 0 75 -75v-650q0 -75 -75 -75h-825zM200 1225v-650h575v650h-575z" />
    <glyph glyph-name="ordfeminine" unicode="&#xaa;" horiz-adv-x="1650" 
d="M0 200v1100q0 200 200 200h1100q200 0 200 -200v-1100q0 -200 -200 -200h-1100q-200 0 -200 200zM1475 201v1099q0 175 -175 175h-1100q-174 0 -175 -175v-1100q1 -175 175 -175h1101q174 0 174 176z" />
    <glyph glyph-name="guillemotleft" unicode="&#xab;" horiz-adv-x="1400" 
d="M0 650l250 500h450l-100 -101l-150 -349l-100 -49l100 -52l149 -349l101 -100h-450zM550 650l250 500h450l-100 -101l-150 -349l-100 -49l100 -52l149 -349l101 -100h-450z" />
    <glyph glyph-name="logicalnot" unicode="&#xac;" horiz-adv-x="1014" 
d="M87 767h840v-491l-1 -1h-98v392h-741v100z" />
    <glyph glyph-name="registered" unicode="&#xae;" horiz-adv-x="1100" 
d="M450 851v-199l-200 -1v499h425q74 0 75 -75v-125q-1 -50 -100 -50h-75l50 -25l99 -174l51 -51h-225zM450 926l100 -1v150l-100 1v-150zM75 500q-75 0 -75 75v650q0 75 75 75h850q75 0 75 -75v-650q0 -75 -75 -75h-850zM200 1225v-650h600v650h-600z" />
    <glyph glyph-name="macron" unicode="&#xaf;" horiz-adv-x="1650" 
d="M0 200v1100q0 200 200 200h1100q200 0 200 -200v-1100q0 -200 -200 -200h-1100q-200 0 -200 200zM1475 201v1099q0 175 -175 175h-1100q-174 0 -175 -175v-1100q1 -175 175 -175h1101q174 0 174 176z" />
    <glyph glyph-name="degree" unicode="&#xb0;" horiz-adv-x="674" 
d="M339 1372q-86 0 -147.5 -61t-61.5 -148t61 -147t148 -60t147 60t60 147t-60.5 148t-146.5 61zM339 1442q115 0 196 -81.5t81 -196.5q0 -114 -82 -196t-197 -82q-117 0 -197 81t-80 197t81.5 197t197.5 81z" />
    <glyph glyph-name="plusminus" unicode="&#xb1;" horiz-adv-x="1650" 
d="M0 200v1100q0 200 200 200h1100q200 0 200 -200v-1100q0 -200 -200 -200h-1100q-200 0 -200 200zM1475 201v1099q0 175 -175 175h-1100q-174 0 -175 -175v-1100q1 -175 175 -175h1101q174 0 174 176z" />
    <glyph glyph-name="uni00B2" unicode="&#xb2;" horiz-adv-x="1650" 
d="M0 200v1100q0 200 200 200h1100q200 0 200 -200v-1100q0 -200 -200 -200h-1100q-200 0 -200 200zM1475 201v1099q0 175 -175 175h-1100q-174 0 -175 -175v-1100q1 -175 175 -175h1101q174 0 174 176z" />
    <glyph glyph-name="uni00B3" unicode="&#xb3;" horiz-adv-x="1650" 
d="M0 200v1100q0 200 200 200h1100q200 0 200 -200v-1100q0 -200 -200 -200h-1100q-200 0 -200 200zM1475 201v1099q0 175 -175 175h-1100q-174 0 -175 -175v-1100q1 -175 175 -175h1101q174 0 174 176z" />
    <glyph glyph-name="acute" unicode="&#xb4;" horiz-adv-x="800" 
d="M550 1450h-550v200l400 150h300v-200q0 -150 -150 -150z" />
    <glyph glyph-name="mu" unicode="&#xb5;" horiz-adv-x="1400" 
d="M1300 1300l-100 -100v-1050q-2 -150 -150 -150h-1050l100 100v1200l400 -1v-1149h300v1000q0 150 164 150h336z" />
    <glyph glyph-name="paragraph" unicode="&#xb6;" horiz-adv-x="1600" 
d="M800 1150v-450h200v450h-200zM1500 1300l-100 -100v-1100l100 -100h-500v550h-200v-550h-500l100 100v450h-250q-150 0 -150 150v450q0 150 150 150h1350z" />
    <glyph glyph-name="periodcentered" unicode="&#xb7;" horiz-adv-x="500" 
d="M400 800v-250l-100 -100h-300v250l100 100h300z" />
    <glyph glyph-name="periodcentered" unicode="&#x2219;" horiz-adv-x="500" 
d="M400 800v-250l-100 -100h-300v250l100 100h300z" />
    <glyph glyph-name="cedilla" unicode="&#xb8;" horiz-adv-x="600" 
d="M150 -300q-150 0 -150 150v300h400v-350l100 -100h-350z" />
    <glyph glyph-name="uni00B9" unicode="&#xb9;" horiz-adv-x="1650" 
d="M0 200v1100q0 200 200 200h1100q200 0 200 -200v-1100q0 -200 -200 -200h-1100q-200 0 -200 200zM1475 201v1099q0 175 -175 175h-1100q-174 0 -175 -175v-1100q1 -175 175 -175h1101q174 0 174 176z" />
    <glyph glyph-name="ordmasculine" unicode="&#xba;" horiz-adv-x="1650" 
d="M0 200v1100q0 200 200 200h1100q200 0 200 -200v-1100q0 -200 -200 -200h-1100q-200 0 -200 200zM1475 201v1099q0 175 -175 175h-1100q-174 0 -175 -175v-1100q1 -175 175 -175h1101q174 0 174 176z" />
    <glyph glyph-name="guillemotright" unicode="&#xbb;" horiz-adv-x="1400" 
d="M1000 150h-450l101 100l149 349l100 52l-100 49l-150 349l-100 101h450l250 -500zM450 150h-450l101 100l149 349l100 52l-100 49l-150 349l-100 101h450l250 -500z" />
    <glyph glyph-name="onequarter" unicode="&#xbc;" horiz-adv-x="1650" 
d="M0 200v1100q0 200 200 200h1100q200 0 200 -200v-1100q0 -200 -200 -200h-1100q-200 0 -200 200zM1475 201v1099q0 175 -175 175h-1100q-174 0 -175 -175v-1100q1 -175 175 -175h1101q174 0 174 176z" />
    <glyph glyph-name="onehalf" unicode="&#xbd;" horiz-adv-x="1650" 
d="M0 200v1100q0 200 200 200h1100q200 0 200 -200v-1100q0 -200 -200 -200h-1100q-200 0 -200 200zM1475 201v1099q0 175 -175 175h-1100q-174 0 -175 -175v-1100q1 -175 175 -175h1101q174 0 174 176z" />
    <glyph glyph-name="threequarters" unicode="&#xbe;" horiz-adv-x="1650" 
d="M0 200v1100q0 200 200 200h1100q200 0 200 -200v-1100q0 -200 -200 -200h-1100q-200 0 -200 200zM1475 201v1099q0 175 -175 175h-1100q-174 0 -175 -175v-1100q1 -175 175 -175h1101q174 0 174 176z" />
    <glyph glyph-name="questiondown" unicode="&#xbf;" 
d="M401 600v-450h298l401 200v-350h-951q-149 1 -149 150v450q1 149 150 150h200v50h400v-50q0 -150 -150 -150h-199zM350 950v250l100 100h300v-250l-100 -100h-300z" />
    <glyph glyph-name="Agrave" unicode="&#xc0;" horiz-adv-x="1400" 
d="M500 550v-400q0 -150 -164 -150h-336l100 100v1050q0 149 150 150h1050l-100 -100v-1200h-400v550h-300zM800 700v450h-300v-450h300zM300 1600v200h300l400 -150v-200h-550q-150 0 -150 150z" />
    <glyph glyph-name="Aacute" unicode="&#xc1;" horiz-adv-x="1400" 
d="M500 550v-400q0 -150 -164 -150h-336l100 100v1050q0 149 150 150h1050l-100 -100v-1200h-400v550h-300zM800 700v450h-300v-450h300zM850 1450h-550v200l400 150h300v-200q0 -150 -150 -150z" />
    <glyph glyph-name="Acircumflex" unicode="&#xc2;" horiz-adv-x="1400" 
d="M500 550v-400q0 -150 -164 -150h-336l100 100v1050q0 149 150 150h1050l-100 -100v-1200h-400v550h-300zM800 700v450h-300v-450h300zM650 1636l-75 -186h-450l101 100l99 200l325 178l325 -177l99 -201l101 -100h-450z" />
    <glyph glyph-name="Atilde" unicode="&#xc3;" horiz-adv-x="1400" 
d="M500 550v-400q0 -150 -164 -150h-336l100 100v1050q0 149 150 150h1050l-100 -100v-1200h-400v550h-300zM800 700v450h-300v-450h300zM914 1450q-164 0 -164 150v100h-200v-250h-400v300l-100 100h950q150 0 150 -150v-151l100 -99h-336z" />
    <glyph glyph-name="Adieresis" unicode="&#xc4;" horiz-adv-x="1400" 
d="M500 550v-400q0 -150 -164 -150h-336l100 100v1050q0 149 150 150h1050l-100 -100v-1200h-400v550h-300zM800 700v450h-300v-450h300zM500 1800v-250l-100 -100h-300v250l100 100h300zM1200 1800v-250l-100 -100h-300v250l100 100h300z" />
    <glyph glyph-name="Aring" unicode="&#xc5;" horiz-adv-x="1400" 
d="M500 550v-400q0 -150 -164 -150h-336l100 100v1050q0 149 150 150h1050l-100 -100v-1200h-400v550h-300zM800 700v450h-300v-450h300zM251 1450q-151 0 -151 150l-1 149q1 149 151 150h800q149 0 149 -151l2 -148q-1 -150 -151 -150h-799zM500 1599h300v151h-301z" />
    <glyph glyph-name="AE" unicode="&#xc6;" horiz-adv-x="1800" 
d="M700 700v450h-200v-450h200zM700 550h-200v-400q0 -150 -164 -150h-336l100 100v1050q0 149 150 150h1450v-350l-400 200h-200v-450h300v-150h-300v-400h200l400 199v-349h-1100l100 100v450z" />
    <glyph glyph-name="Ccedilla" unicode="&#xc7;" 
d="M350 0h-200q-150 0 -150 150v1000q0 150 150 150h950v-350l-400 200h-300v-1000h300l400 199v-349h-350v-200l100 -100h-350q-150 0 -150 150v150z" />
    <glyph glyph-name="Egrave" unicode="&#xc8;" horiz-adv-x="1300" 
d="M500 550v-400h300l400 199v-349h-1200l100 100v1100l-100 100h1200v-350l-400 200h-300v-450h300v-150h-300zM300 1600v200h300l400 -150v-200h-550q-150 0 -150 150z" />
    <glyph glyph-name="Eacute" unicode="&#xc9;" horiz-adv-x="1300" 
d="M500 550v-400h300l400 199v-349h-1200l100 100v1100l-100 100h1200v-350l-400 200h-300v-450h300v-150h-300zM850 1450h-550v200l400 150h300v-200q0 -150 -150 -150z" />
    <glyph glyph-name="Ecircumflex" unicode="&#xca;" horiz-adv-x="1300" 
d="M500 550v-400h300l400 199v-349h-1200l100 100v1100l-100 100h1200v-350l-400 200h-300v-450h300v-150h-300zM650 1636l-75 -186h-450l101 100l99 200l325 178l325 -177l99 -201l101 -100h-450z" />
    <glyph glyph-name="Edieresis" unicode="&#xcb;" horiz-adv-x="1300" 
d="M500 550v-400h300l400 199v-349h-1200l100 100v1100l-100 100h1200v-350l-400 200h-300v-450h300v-150h-300zM500 1800v-250l-100 -100h-300v250l100 100h300zM1200 1800v-250l-100 -100h-300v250l100 100h300z" />
    <glyph glyph-name="Igrave" unicode="&#xcc;" horiz-adv-x="700" 
d="M600 1300l-100 -100v-1100l100 -100h-600l100 100v1100l-100 100h600zM-50 1600v200h300l400 -150v-200h-550q-150 0 -150 150z" />
    <glyph glyph-name="Iacute" unicode="&#xcd;" horiz-adv-x="700" 
d="M600 1300l-100 -100v-1100l100 -100h-600l100 100v1100l-100 100h600zM500 1450h-550v200l400 150h300v-200q0 -150 -150 -150z" />
    <glyph glyph-name="Icircumflex" unicode="&#xce;" horiz-adv-x="700" 
d="M600 1300l-100 -100v-1100l100 -100h-600l100 100v1100l-100 100h600zM300 1636l-75 -186h-450l101 100l99 200l325 178l325 -177l99 -201l101 -100h-450z" />
    <glyph glyph-name="Idieresis" unicode="&#xcf;" horiz-adv-x="700" 
d="M600 1300l-100 -100v-1100l100 -100h-600l100 100v1100l-100 100h600zM150 1800v-250l-100 -100h-300v250l100 100h300zM850 1800v-250l-100 -100h-300v250l100 100h300z" />
    <glyph glyph-name="Eth" unicode="&#xd0;" horiz-adv-x="1300" 
d="M499 550v-401l301 1v1001h-301v-451h201v-150h-201zM100 700v500l-100 100h1050q149 0 150 -151l1 -999q-1 -150 -152 -150h-1049l100 100v450h-100v150h100z" />
    <glyph glyph-name="Ntilde" unicode="&#xd1;" horiz-adv-x="1400" 
d="M964 0q-164 0 -164 150v1000h-300v-1150h-400v1200l-100 100h1050q150 0 150 -150l1 -1050l99 -100h-336zM914 1450q-164 0 -164 150v100h-200v-250h-400v300l-100 100h950q150 0 150 -150v-151l100 -99h-336z" />
    <glyph glyph-name="Ograve" unicode="&#xd2;" 
d="M151 0q-151 0 -151 150v1000q1 149 151 150h800q149 0 149 -151l1 -999q-1 -150 -151 -150h-799zM400 149l301 1v1001h-301v-1002zM200 1600v200h300l400 -150v-200h-550q-150 0 -150 150z" />
    <glyph glyph-name="Oacute" unicode="&#xd3;" 
d="M151 0q-151 0 -151 150v1000q1 149 151 150h800q149 0 149 -151l1 -999q-1 -150 -151 -150h-799zM400 149l301 1v1001h-301v-1002zM750 1450h-550v200l400 150h300v-200q0 -150 -150 -150z" />
    <glyph glyph-name="Ocircumflex" unicode="&#xd4;" 
d="M151 0q-151 0 -151 150v1000q1 149 151 150h800q149 0 149 -151l1 -999q-1 -150 -151 -150h-799zM400 149l301 1v1001h-301v-1002zM550 1636l-75 -186h-450l101 100l99 200l325 178l325 -177l99 -201l101 -100h-450z" />
    <glyph glyph-name="Otilde" unicode="&#xd5;" 
d="M151 0q-151 0 -151 150v1000q1 149 151 150h800q149 0 149 -151l1 -999q-1 -150 -151 -150h-799zM400 149l301 1v1001h-301v-1002zM814 1450q-164 0 -164 150v100h-200v-250h-400v300l-100 100h950q150 0 150 -150v-151l100 -99h-336z" />
    <glyph glyph-name="Odieresis" unicode="&#xd6;" 
d="M151 0q-151 0 -151 150v1000q1 149 151 150h800q149 0 149 -151l1 -999q-1 -150 -151 -150h-799zM400 149l301 1v1001h-301v-1002zM400 1800v-250l-100 -100h-300v250l100 100h300zM1100 1800v-250l-100 -100h-300v250l100 100h300z" />
    <glyph glyph-name="multiply" unicode="&#xd7;" horiz-adv-x="1350" 
d="M625 484l-125 -334h-450l101 100l149 348l100 52l-100 49l-150 350l-100 101h450l125 -374l125 374h450l-100 -101l-150 -349l-100 -49l100 -52l149 -349l101 -100h-450z" />
    <glyph glyph-name="Oslash" unicode="&#xd8;" 
d="M538 149l163 1v392zM400 758l163 393h-163v-393zM475 0v-1h-450l27 27q-52 36 -52 124v1000q1 149 151 150h924l-26 -26q51 -37 51 -125l1 -999q-1 -150 -151 -150h-475z" />
    <glyph glyph-name="Ugrave" unicode="&#xd9;" horiz-adv-x="1400" 
d="M336 1300q164 0 164 -150v-1000h300v1149l400 1v-1200l100 -100h-1050q-149 0 -150 150v1050l-100 100h336zM300 1600v200h300l400 -150v-200h-550q-150 0 -150 150z" />
    <glyph glyph-name="Uacute" unicode="&#xda;" horiz-adv-x="1400" 
d="M336 1300q164 0 164 -150v-1000h300v1149l400 1v-1200l100 -100h-1050q-149 0 -150 150v1050l-100 100h336zM850 1450h-550v200l400 150h300v-200q0 -150 -150 -150z" />
    <glyph glyph-name="Ucircumflex" unicode="&#xdb;" horiz-adv-x="1400" 
d="M336 1300q164 0 164 -150v-1000h300v1149l400 1v-1200l100 -100h-1050q-149 0 -150 150v1050l-100 100h336zM650 1636l-75 -186h-450l101 100l99 200l325 178l325 -177l99 -201l101 -100h-450z" />
    <glyph glyph-name="Udieresis" unicode="&#xdc;" horiz-adv-x="1400" 
d="M336 1300q164 0 164 -150v-1000h300v1149l400 1v-1200l100 -100h-1050q-149 0 -150 150v1050l-100 100h336zM500 1800v-250l-100 -100h-300v250l100 100h300zM1200 1800v-250l-100 -100h-300v250l100 100h300z" />
    <glyph glyph-name="Yacute" unicode="&#xdd;" horiz-adv-x="1350" 
d="M425 632l-125 67l-200 500l-100 100l450 1l175 -524l175 525l450 -1l-100 -100l-200 -500l-125 -67v-533l100 -100h-600l100 100v532zM850 1450h-550v200l400 150h300v-200q0 -150 -150 -150z" />
    <glyph glyph-name="Thorn" unicode="&#xde;" horiz-adv-x="1300" 
d="M500 250v-250h-500l100 100v1100l-100 100h500v-300h550q150 0 150 -150v-450q0 -150 -150 -150h-550zM800 850h-300v-450h300v450z" />
    <glyph glyph-name="germandbls" unicode="&#xdf;" horiz-adv-x="1300" 
d="M350 0h-350l100 100v1100l-100 100h1051q149 0 149 -150v-400q0 -89 -250 -99q250 -11 250 -101v-400q0 -150 -150 -150h-450v150h199l1 400h-200v150h200v450h-299v-1000q-1 -150 -151 -150z" />
    <glyph glyph-name="agrave" unicode="&#xe0;" horiz-adv-x="1120" 
d="M400 440v-320q0 -120 -131 -120h-269l80 80v840q0 119 120 120h840l-80 -80v-960h-320v440h-240zM640 560v360h-240v-360h240zM240 1280v160h240l320 -120v-160h-440q-120 0 -120 120z" />
    <glyph glyph-name="aacute" unicode="&#xe1;" horiz-adv-x="1120" 
d="M400 440v-320q0 -120 -131 -120h-269l80 80v840q0 119 120 120h840l-80 -80v-960h-320v440h-240zM640 560v360h-240v-360h240zM680 1160h-440v160l320 120h240v-160q0 -120 -120 -120z" />
    <glyph glyph-name="acircumflex" unicode="&#xe2;" horiz-adv-x="1120" 
d="M400 440v-320q0 -120 -131 -120h-269l80 80v840q0 119 120 120h840l-80 -80v-960h-320v440h-240zM640 560v360h-240v-360h240zM520 1309l-60 -149h-360l81 80l79 160l260 142l260 -141l79 -161l81 -80h-360z" />
    <glyph glyph-name="atilde" unicode="&#xe3;" horiz-adv-x="1120" 
d="M400 440v-320q0 -120 -131 -120h-269l80 80v840q0 119 120 120h840l-80 -80v-960h-320v440h-240zM640 560v360h-240v-360h240zM731 1160q-131 0 -131 120v80h-160v-200h-320v240l-80 80h760q120 0 120 -120v-121l80 -79h-269z" />
    <glyph glyph-name="adieresis" unicode="&#xe4;" horiz-adv-x="1120" 
d="M400 440v-320q0 -120 -131 -120h-269l80 80v840q0 119 120 120h840l-80 -80v-960h-320v440h-240zM640 560v360h-240v-360h240zM400 1440v-200l-80 -80h-240v200l80 80h240zM960 1440v-200l-80 -80h-240v200l80 80h240z" />
    <glyph glyph-name="aring" unicode="&#xe5;" horiz-adv-x="1120" 
d="M400 440v-320q0 -120 -131 -120h-269l80 80v840q0 119 120 120h840l-80 -80v-960h-320v440h-240zM640 560v360h-240v-360h240zM200 1160q-120 0 -120 120l-1 120q1 119 121 119h640q119 0 119 -120l2 -119q-1 -120 -121 -120h-640zM400 1279h240v121h-241z" />
    <glyph glyph-name="ae" unicode="&#xe6;" horiz-adv-x="1440" 
d="M560 560v360h-160v-360h160zM560 440h-160v-320q0 -120 -131 -120h-269l80 80v840q0 119 120 120h1160v-280l-320 160h-160v-360h240v-120h-240v-320h160l320 159v-279h-880l80 80v360z" />
    <glyph glyph-name="ccedilla" unicode="&#xe7;" horiz-adv-x="960" 
d="M280 0h-160q-120 0 -120 120v800q0 120 120 120h760v-280l-320 160h-240v-800h240l320 159v-279h-280v-160l80 -80h-280q-120 0 -120 120v120z" />
    <glyph glyph-name="egrave" unicode="&#xe8;" horiz-adv-x="1040" 
d="M400 440v-320h240l320 159v-279h-960l80 80v880l-80 80h960v-280l-320 160h-240v-360h240v-120h-240zM240 1280v160h240l320 -120v-160h-440q-120 0 -120 120z" />
    <glyph glyph-name="eacute" unicode="&#xe9;" horiz-adv-x="1040" 
d="M400 440v-320h240l320 159v-279h-960l80 80v880l-80 80h960v-280l-320 160h-240v-360h240v-120h-240zM680 1160h-440v160l320 120h240v-160q0 -120 -120 -120z" />
    <glyph glyph-name="ecircumflex" unicode="&#xea;" horiz-adv-x="1040" 
d="M400 440v-320h240l320 159v-279h-960l80 80v880l-80 80h960v-280l-320 160h-240v-360h240v-120h-240zM520 1309l-60 -149h-360l81 80l79 160l260 142l260 -141l79 -161l81 -80h-360z" />
    <glyph glyph-name="edieresis" unicode="&#xeb;" horiz-adv-x="1040" 
d="M400 440v-320h240l320 159v-279h-960l80 80v880l-80 80h960v-280l-320 160h-240v-360h240v-120h-240zM400 1440v-200l-80 -80h-240v200l80 80h240zM960 1440v-200l-80 -80h-240v200l80 80h240z" />
    <glyph glyph-name="igrave" unicode="&#xec;" horiz-adv-x="560" 
d="M480 1040l-80 -80v-880l80 -80h-480l80 80v880l-80 80h480zM-40 1280v160h240l320 -120v-160h-440q-120 0 -120 120z" />
    <glyph glyph-name="iacute" unicode="&#xed;" horiz-adv-x="560" 
d="M480 1040l-80 -80v-880l80 -80h-480l80 80v880l-80 80h480zM400 1160h-440v160l320 120h240v-160q0 -120 -120 -120z" />
    <glyph glyph-name="icircumflex" unicode="&#xee;" horiz-adv-x="560" 
d="M480 1040l-80 -80v-880l80 -80h-480l80 80v880l-80 80h480zM240 1309l-60 -149h-360l81 80l79 160l260 142l260 -141l79 -161l81 -80h-360z" />
    <glyph glyph-name="idieresis" unicode="&#xef;" horiz-adv-x="560" 
d="M480 1040l-80 -80v-880l80 -80h-480l80 80v880l-80 80h480zM120 1440v-200l-80 -80h-240v200l80 80h240zM680 1440v-200l-80 -80h-240v200l80 80h240z" />
    <glyph glyph-name="eth" unicode="&#xf0;" horiz-adv-x="1040" 
d="M399 440v-321l241 1v801h-241v-361h161v-120h-161zM80 560v400l-80 80h840q119 0 120 -121l1 -799q-1 -120 -122 -120h-839l80 80v360h-80v120h80z" />
    <glyph glyph-name="ntilde" unicode="&#xf1;" horiz-adv-x="1120" 
d="M771 0q-131 0 -131 120v800h-240v-920h-320v960l-80 80h840q120 0 120 -120l1 -840l79 -80h-269zM731 1160q-131 0 -131 120v80h-160v-200h-320v240l-80 80h760q120 0 120 -120v-121l80 -79h-269z" />
    <glyph glyph-name="ograve" unicode="&#xf2;" horiz-adv-x="960" 
d="M120 0q-120 0 -120 120v800q1 119 120 120h641q119 0 119 -120l1 -800q-1 -120 -121 -120h-640zM320 119l241 1l-1 801h-240v-802zM160 1280v160h240l320 -120v-160h-440q-120 0 -120 120z" />
    <glyph glyph-name="oacute" unicode="&#xf3;" horiz-adv-x="960" 
d="M120 0q-120 0 -120 120v800q1 119 120 120h641q119 0 119 -120l1 -800q-1 -120 -121 -120h-640zM320 119l241 1l-1 801h-240v-802zM600 1160h-440v160l320 120h240v-160q0 -120 -120 -120z" />
    <glyph glyph-name="ocircumflex" unicode="&#xf4;" horiz-adv-x="960" 
d="M120 0q-120 0 -120 120v800q1 119 120 120h641q119 0 119 -120l1 -800q-1 -120 -121 -120h-640zM320 119l241 1l-1 801h-240v-802zM440 1309l-60 -149h-360l81 80l79 160l260 142l260 -141l79 -161l81 -80h-360z" />
    <glyph glyph-name="otilde" unicode="&#xf5;" horiz-adv-x="960" 
d="M120 0q-120 0 -120 120v800q1 119 120 120h641q119 0 119 -120l1 -800q-1 -120 -121 -120h-640zM320 119l241 1l-1 801h-240v-802zM651 1160q-131 0 -131 120v80h-160v-200h-320v240l-80 80h760q120 0 120 -120v-121l80 -79h-269z" />
    <glyph glyph-name="odieresis" unicode="&#xf6;" horiz-adv-x="960" 
d="M120 0q-120 0 -120 120v800q1 119 120 120h641q119 0 119 -120l1 -800q-1 -120 -121 -120h-640zM320 119l241 1l-1 801h-240v-802zM320 1440v-200l-80 -80h-240v200l80 80h240zM880 1440v-200l-80 -80h-240v200l80 80h240z" />
    <glyph glyph-name="divide" unicode="&#xf7;" horiz-adv-x="900" 
d="M0 550v150h800v-150h-800zM600 400v-250l-100 -100h-300v250l100 100h300zM600 1200v-250l-100 -100h-300v250l100 100h300z" />
    <glyph glyph-name="oslash" unicode="&#xf8;" horiz-adv-x="960" 
d="M430 120h131v313zM320 607l130 314h-130v-314zM380 0v-1h-360l22 22q-42 29 -42 99v800q1 119 121 120h739l-21 -21q41 -29 41 -100l1 -799q-1 -120 -121 -120h-380z" />
    <glyph glyph-name="ugrave" unicode="&#xf9;" horiz-adv-x="1120" 
d="M269 1040q131 0 131 -120v-800h240v919l320 1v-960l80 -80h-840q-119 0 -120 120v840l-80 80h269zM240 1280v160h240l320 -120v-160h-440q-120 0 -120 120z" />
    <glyph glyph-name="uacute" unicode="&#xfa;" horiz-adv-x="1120" 
d="M269 1040q131 0 131 -120v-800h240v919l320 1v-960l80 -80h-840q-119 0 -120 120v840l-80 80h269zM680 1160h-440v160l320 120h240v-160q0 -120 -120 -120z" />
    <glyph glyph-name="ucircumflex" unicode="&#xfb;" horiz-adv-x="1120" 
d="M269 1040q131 0 131 -120v-800h240v919l320 1v-960l80 -80h-840q-119 0 -120 120v840l-80 80h269zM520 1309l-60 -149h-360l81 80l79 160l260 142l260 -141l79 -161l81 -80h-360z" />
    <glyph glyph-name="udieresis" unicode="&#xfc;" horiz-adv-x="1120" 
d="M269 1040q131 0 131 -120v-800h240v919l320 1v-960l80 -80h-840q-119 0 -120 120v840l-80 80h269zM400 1440v-200l-80 -80h-240v200l80 80h240zM960 1440v-200l-80 -80h-240v200l80 80h240z" />
    <glyph glyph-name="yacute" unicode="&#xfd;" horiz-adv-x="1080" 
d="M340 506l-100 53l-160 400l-80 80l360 1l140 -419l140 420l360 -1l-80 -80l-160 -400l-100 -54v-426l80 -80h-480l80 80v426zM680 1160h-440v160l320 120h240v-160q0 -120 -120 -120z" />
    <glyph glyph-name="thorn" unicode="&#xfe;" horiz-adv-x="1040" 
d="M400 200v-200h-400l80 80v880l-80 80h400v-240h440q120 0 120 -120v-360q0 -120 -120 -120h-440zM640 680h-240v-360h240v360z" />
    <glyph glyph-name="ydieresis" unicode="&#xff;" horiz-adv-x="1080" 
d="M340 506l-100 53l-160 400l-80 80l360 1l140 -419l140 420l360 -1l-80 -80l-160 -400l-100 -54v-426l80 -80h-480l80 80v426zM400 1440v-200l-80 -80h-240v200l80 80h240zM960 1440v-200l-80 -80h-240v200l80 80h240z" />
    <glyph glyph-name="dotlessi" unicode="&#x131;" horiz-adv-x="560" 
d="M480 1040l-80 -80v-880l80 -80h-480l80 80v880l-80 80h480z" />
    <glyph glyph-name="circumflex" unicode="&#x2c6;" horiz-adv-x="1150" 
d="M525 1636l-75 -186h-450l101 100l99 200l325 178l325 -177l99 -201l101 -100h-450z" />
    <glyph glyph-name="caron" unicode="&#x2c7;" horiz-adv-x="1150" 
d="M525 1741l75 187h450l-101 -100l-99 -200l-325 -178l-325 177l-99 201l-101 100h450z" />
    <glyph glyph-name="uni02C9" unicode="&#x2c9;" horiz-adv-x="1024" 
d="M254 1195v125h516v-125h-516z" />
    <glyph glyph-name="breve" unicode="&#x2d8;" horiz-adv-x="1024" 
d="M219 1349h51q17 -73 75 -107t167 -34t166 33.5t74 107.5h51q-20 -133 -94 -201.5t-197 -68.5q-122 0 -197 69t-96 201z" />
    <glyph glyph-name="dotaccent" unicode="&#x2d9;" horiz-adv-x="1024" 
d="M422 1289l69 72q6 6 13 9t14 3q6 0 12.5 -3t12.5 -9l71 -76q5 -4 7 -10t2 -14q-1 -9 -3 -15t-8 -12l-71 -76q-12 -11 -16 -13.5t-7 -2.5q-10 0 -16.5 2.5t-10.5 8.5l-75 87q-4 4 -6 9.5t-2 13.5q0 6 3 12.5t11 13.5z" />
    <glyph glyph-name="ring" unicode="&#x2da;" 
d="M151 1451q-150 0 -150 150l-1 149q0 149 150 150h801q148 0 149 -151l2 -148q-1 -150 -151 -150h-800zM401 1600h299v151h-300z" />
    <glyph glyph-name="ogonek" unicode="&#x2db;" horiz-adv-x="600" 
d="M0 -300l100 100v350h400v-300q0 -150 -150 -150h-350z" />
    <glyph glyph-name="tilde" unicode="&#x2dc;" horiz-adv-x="1300" 
d="M864 1450q-164 0 -164 150v100h-200v-250h-400v300l-100 100h950q150 0 150 -150v-151l100 -99h-336z" />
    <glyph glyph-name="hungarumlaut" unicode="&#x2dd;" horiz-adv-x="1024" 
d="M217 1079l144 273q24 44 45.5 63t46.5 19q28 0 48 -20t20 -47q0 -16 -10.5 -35t-30.5 -41l-205 -212h-58zM502 1079l144 273q24 44 45.5 63t46.5 19q28 0 48 -20t20 -47q0 -16 -10.5 -35t-30.5 -41l-205 -212h-58z" />
    <glyph glyph-name="endash" unicode="&#x2013;" horiz-adv-x="1108" 
d="M56 419v120h996v-120h-996z" />
    <glyph glyph-name="emdash" unicode="&#x2014;" horiz-adv-x="2048" 
d="M0 419v120h2048v-120h-2048z" />
    <glyph glyph-name="quoteleft" unicode="&#x2018;" horiz-adv-x="500" 
d="M200 1000h200v-250l-100 -100h-300v500q0 150 150 150h250v-250l-200 100v-150z" />
    <glyph glyph-name="quoteright" unicode="&#x2019;" horiz-adv-x="500" 
d="M200 950h-200v250l100 100h300v-500q0 -150 -150 -150h-250v250l200 -100v150z" />
    <glyph glyph-name="quotesinglbase" unicode="&#x201a;" horiz-adv-x="500" 
d="M200 0h-200v250l100 100h300v-500q0 -150 -150 -150h-250v250l200 -100v150z" />
    <glyph glyph-name="quotedblleft" unicode="&#x201c;" horiz-adv-x="1000" 
d="M700 1000h200v-250l-100 -100h-300v500q0 150 150 150h250v-250l-200 100v-150zM200 1000h200v-250l-100 -100h-300v500q0 150 150 150h250v-250l-200 100v-150z" />
    <glyph glyph-name="quotedblright" unicode="&#x201d;" horiz-adv-x="1000" 
d="M200 950h-200v250l100 100h300v-500q0 -150 -150 -150h-250v250l200 -100v150zM700 950h-200v250l100 100h300v-500q0 -150 -150 -150h-250v250l200 -100v150z" />
    <glyph glyph-name="quotedblbase" unicode="&#x201e;" horiz-adv-x="1000" 
d="M200 0h-200v250l100 100h300v-500q0 -150 -150 -150h-250v250l200 -100v150zM700 0h-200v250l100 100h300v-500q0 -150 -150 -150h-250v250l200 -100v150z" />
    <glyph glyph-name="dagger" unicode="&#x2020;" horiz-adv-x="1014" 
d="M486 1022q-8 97 -54 178q-57 101 -57 129q0 49 36 78.5t96 29.5q57 0 94.5 -27.5t37.5 -71.5q0 -32 -55 -137q-46 -85 -55 -179q96 8 177 54q101 57 129 57q49 0 79 -36t30 -96q0 -57 -27.5 -94.5t-72.5 -37.5q-32 0 -136 55q-85 46 -179 57q8 -176 110 -277
q-106 -460 -112 -974h-38q-6 514 -114 974q102 101 111 277q-96 -10 -178 -55q-101 -57 -129 -57q-49 0 -78.5 36t-29.5 96q0 57 27.5 94.5t71.5 37.5q32 0 137 -56q85 -46 179 -55z" />
    <glyph glyph-name="daggerdbl" unicode="&#x2021;" horiz-adv-x="1014" 
d="M528 186q94 11 179 57q104 55 136 55q45 0 72.5 -37.5t27.5 -94.5q0 -60 -30 -96t-79 -36q-28 0 -129 57q-81 46 -177 54q9 -94 55 -179q55 -105 55 -137q0 -44 -37.5 -71.5t-94.5 -27.5q-60 0 -96 29.5t-36 78.5q0 28 57 129q46 81 54 178q-94 -9 -179 -55
q-105 -56 -137 -56q-44 0 -71.5 37.5t-27.5 94.5q0 60 29.5 96t78.5 36q28 0 129 -57q82 -45 178 -55q-9 226 -111 398q102 171 111 397q-96 -10 -178 -55q-101 -57 -129 -57q-49 0 -78.5 36t-29.5 96q0 57 27.5 94.5t71.5 37.5q32 0 137 -56q85 -46 179 -55q-8 97 -54 178
q-57 101 -57 129q0 49 36 78.5t96 29.5q57 0 94.5 -27.5t37.5 -71.5q0 -32 -55 -137q-46 -85 -55 -179q96 8 177 54q101 57 129 57q49 0 79 -36t30 -96q0 -57 -27.5 -94.5t-72.5 -37.5q-32 0 -136 55q-85 46 -179 57q8 -226 110 -397q-102 -172 -110 -398z" />
    <glyph glyph-name="bullet" unicode="&#x2022;" horiz-adv-x="1024" 
d="M216 718q0 123 87 209t210 86q122 0 208.5 -86.5t86.5 -208.5t-87.5 -209.5t-209.5 -87.5q-123 0 -209 87t-86 210z" />
    <glyph glyph-name="ellipsis" unicode="&#x2026;" horiz-adv-x="1500" 
d="M400 350v-250l-100 -100h-300v250l100 100h300zM900 350v-250l-100 -100h-300v250l100 100h300zM1400 350v-250l-100 -100h-300v250l100 100h300z" />
    <glyph glyph-name="guilsinglleft" unicode="&#x2039;" horiz-adv-x="850" 
d="M0 650l250 500h450l-100 -101l-150 -349l-100 -49l100 -52l149 -349l101 -100h-450z" />
    <glyph glyph-name="guilsinglright" unicode="&#x203a;" horiz-adv-x="850" 
d="M450 150h-450l101 100l149 349l100 52l-100 49l-150 349l-100 101h450l250 -500z" />
    <glyph glyph-name="fraction" unicode="&#x2044;" horiz-adv-x="1150" 
d="M450 -1h-450l101 100l499 1201h450l-100 -100z" />
    <glyph glyph-name="fraction" unicode="&#x2215;" horiz-adv-x="1150" 
d="M450 -1h-450l101 100l499 1201h450l-100 -100z" />
    <glyph glyph-name="franc" unicode="&#x20a3;" horiz-adv-x="1300" 
d="M100 400v800l-100 100h1200v-350l-400 200h-300v-450h300v-150h-300v-150h300v-150h-300v-250h-500l100 100v150h-100v150h100z" />
    <glyph glyph-name="lira" unicode="&#x20a4;" horiz-adv-x="1300" 
d="M100 700v450q0 150 150 150h950v-350l-400 200h-300v-450h300v-150h-300v-400h300l400 199v-349h-1200l100 100v450h-100v150h100z" />
    <glyph glyph-name="peseta" unicode="&#x20a7;" horiz-adv-x="1300" 
d="M800 1150h-300v-450h300v450zM100 400v800l-100 100h1050q150 0 150 -150v-450q0 -150 -150 -150h-550v-150h300v-150h-300v-250h-500l100 100v150h-100v150h100z" />
    <glyph glyph-name="Euro" unicode="&#x20ac;" horiz-adv-x="1300" 
d="M100 850v300q0 150 150 150h950v-350l-400 200h-300v-300h300v-150h-300v-150h300v-150h-300v-250h300l400 199v-349h-950q-150 0 -150 150v250h-100v150h100v150h-100v150h100z" />
    <glyph glyph-name="afii61352" unicode="&#x2116;" horiz-adv-x="1300" 
d="M482 650q-82 0 -82 75v500h-150v-575h-200v600l-50 50h525q75 0 75 -75v-525l50 -50h-168zM725 650q-75 0 -75 75v500q0 75 75 75h400q75 0 75 -75l1 -500q-1 -75 -76 -75h-400zM850 725h150v500h-150v-500z" />
    <glyph glyph-name="trademark" unicode="&#x2122;" horiz-adv-x="1600" 
d="M599 1250v-125l-200 100v-525l50 -50h-300l50 50v525l-200 -100v175h1375q75 0 75 -76v-524l51 -50h-175q-76 0 -76 75v500h-100v-575h-200v575h-100v-576l-200 1v600h-50z" />
    <glyph glyph-name="partialdiff" unicode="&#x2202;" horiz-adv-x="1650" 
d="M0 200v1100q0 200 200 200h1100q200 0 200 -200v-1100q0 -200 -200 -200h-1100q-200 0 -200 200zM1475 201v1099q0 175 -175 175h-1100q-174 0 -175 -175v-1100q1 -175 175 -175h1101q174 0 174 176z" />
    <glyph glyph-name="Delta" unicode="&#x2206;" horiz-adv-x="1650" 
d="M0 200v1100q0 200 200 200h1100q200 0 200 -200v-1100q0 -200 -200 -200h-1100q-200 0 -200 200zM1475 201v1099q0 175 -175 175h-1100q-174 0 -175 -175v-1100q1 -175 175 -175h1101q174 0 174 176z" />
    <glyph glyph-name="product" unicode="&#x220f;" horiz-adv-x="1650" 
d="M0 200v1100q0 200 200 200h1100q200 0 200 -200v-1100q0 -200 -200 -200h-1100q-200 0 -200 200zM1475 201v1099q0 175 -175 175h-1100q-174 0 -175 -175v-1100q1 -175 175 -175h1101q174 0 174 176z" />
    <glyph glyph-name="summation" unicode="&#x2211;" horiz-adv-x="1650" 
d="M0 200v1100q0 200 200 200h1100q200 0 200 -200v-1100q0 -200 -200 -200h-1100q-200 0 -200 200zM1475 201v1099q0 175 -175 175h-1100q-174 0 -175 -175v-1100q1 -175 175 -175h1101q174 0 174 176z" />
    <glyph glyph-name="minus" unicode="&#x2212;" horiz-adv-x="1014" 
d="M87 647v140h839l1 -1v-139h-840z" />
    <glyph glyph-name="radical" unicode="&#x221a;" horiz-adv-x="1650" 
d="M0 200v1100q0 200 200 200h1100q200 0 200 -200v-1100q0 -200 -200 -200h-1100q-200 0 -200 200zM1475 201v1099q0 175 -175 175h-1100q-174 0 -175 -175v-1100q1 -175 175 -175h1101q174 0 174 176z" />
    <glyph glyph-name="infinity" unicode="&#x221e;" horiz-adv-x="1650" 
d="M0 200v1100q0 200 200 200h1100q200 0 200 -200v-1100q0 -200 -200 -200h-1100q-200 0 -200 200zM1475 201v1099q0 175 -175 175h-1100q-174 0 -175 -175v-1100q1 -175 175 -175h1101q174 0 174 176z" />
    <glyph glyph-name="integral" unicode="&#x222b;" horiz-adv-x="1650" 
d="M0 200v1100q0 200 200 200h1100q200 0 200 -200v-1100q0 -200 -200 -200h-1100q-200 0 -200 200zM1475 201v1099q0 175 -175 175h-1100q-174 0 -175 -175v-1100q1 -175 175 -175h1101q174 0 174 176z" />
    <glyph glyph-name="approxequal" unicode="&#x2248;" horiz-adv-x="1650" 
d="M0 200v1100q0 200 200 200h1100q200 0 200 -200v-1100q0 -200 -200 -200h-1100q-200 0 -200 200zM1475 201v1099q0 175 -175 175h-1100q-174 0 -175 -175v-1100q1 -175 175 -175h1101q174 0 174 176z" />
    <glyph glyph-name="lessequal" unicode="&#x2264;" horiz-adv-x="1650" 
d="M0 200v1100q0 200 200 200h1100q200 0 200 -200v-1100q0 -200 -200 -200h-1100q-200 0 -200 200zM1475 201v1099q0 175 -175 175h-1100q-174 0 -175 -175v-1100q1 -175 175 -175h1101q174 0 174 176z" />
    <glyph glyph-name="greaterequal" unicode="&#x2265;" horiz-adv-x="1650" 
d="M0 200v1100q0 200 200 200h1100q200 0 200 -200v-1100q0 -200 -200 -200h-1100q-200 0 -200 200zM1475 201v1099q0 175 -175 175h-1100q-174 0 -175 -175v-1100q1 -175 175 -175h1101q174 0 174 176z" />
    <glyph glyph-name="uniF001" unicode="&#xf001;" horiz-adv-x="1073" 
 />
    <glyph glyph-name="uniF001" unicode="&#xfb01;" horiz-adv-x="1073" 
 />
    <glyph glyph-name="uniF002" unicode="&#xf002;" horiz-adv-x="1081" 
 />
    <glyph glyph-name="uniF002" unicode="&#xfb02;" horiz-adv-x="1081" 
 />
  </font>
</defs>
</svg>
