<?xml version="1.0" encoding="UTF-8"?>
<!DOCTYPE svg PUBLIC "-//W3C//DTD SVG 1.1//EN" "http://www.w3.org/Graphics/SVG/1.1/DTD/svg11.dtd">
<svg xmlns="http://www.w3.org/2000/svg" version="1.1" width="800px" height="600px" style="shape-rendering:geometricPrecision; text-rendering:geometricPrecision; image-rendering:optimizeQuality; fill-rule:evenodd; clip-rule:evenodd" xmlns:xlink="http://www.w3.org/1999/xlink">
<g><path style="opacity:1" fill="#fdf8e3" d="M -0.5,-0.5 C 265.833,-0.5 532.167,-0.5 798.5,-0.5C 798.5,199.167 798.5,398.833 798.5,598.5C 532.167,598.5 265.833,598.5 -0.5,598.5C -0.5,398.833 -0.5,199.167 -0.5,-0.5 Z"/></g>
<g><path style="opacity:1" fill="#511d2e" d="M 564.5,397.5 C 562.907,396.652 561.74,395.319 561,393.5C 560.5,386.174 560.334,378.841 560.5,371.5C 559.325,371.281 558.325,371.614 557.5,372.5C 558.808,378.296 558.808,383.963 557.5,389.5C 558.484,380.368 556.984,371.701 553,363.5C 548.974,360.302 545.141,356.968 541.5,353.5C 540.833,352.167 539.833,351.167 538.5,350.5C 539.377,341.02 540.044,331.52 540.5,322C 540.61,315.933 539.943,310.1 538.5,304.5C 537.254,290.948 530.588,281.281 518.5,275.5C 518.557,274.391 518.89,273.391 519.5,272.5C 524.248,267.352 527.748,261.352 530,254.5C 531.869,249.228 533.535,243.894 535,238.5C 535.801,235.633 535.634,232.966 534.5,230.5C 530.973,215.649 522.64,204.149 509.5,196C 507.231,195.242 505.064,195.409 503,196.5C 501.873,199.377 501.206,202.377 501,205.5C 492.215,194.42 480.715,187.92 466.5,186C 460.5,185.333 454.5,185.333 448.5,186C 447.391,189.826 448.391,193.159 451.5,196C 436.569,194.1 423.736,198.266 413,208.5C 410.888,211.727 409.055,215.06 407.5,218.5C 405.361,228.9 408.361,237.567 416.5,244.5C 423.045,251.348 431.045,255.681 440.5,257.5C 448.798,258.171 456.798,257.005 464.5,254C 465.517,252.951 465.684,251.784 465,250.5C 462.57,248.578 460.737,246.245 459.5,243.5C 460.05,236.084 463.717,230.584 470.5,227C 473.382,225.392 476.382,224.059 479.5,223C 474.845,222.501 470.179,222.334 465.5,222.5C 463.801,222.66 462.134,222.494 460.5,222C 462.635,220.619 464.968,219.619 467.5,219C 473.862,218.347 480.195,218.513 486.5,219.5C 494.067,220.2 500.567,223.2 506,228.5C 509.432,235.305 509.098,241.972 505,248.5C 502.527,252.618 499.694,256.451 496.5,260C 497.868,261.873 499.534,263.54 501.5,265C 496.076,263.203 490.409,262.036 484.5,261.5C 480.849,260.835 477.015,260.501 473,260.5C 463.506,261.232 454.006,261.899 444.5,262.5C 436.323,262.797 428.323,261.797 420.5,259.5C 409.796,255.979 399.463,251.646 389.5,246.5C 387.481,245.067 385.314,243.733 383,242.5C 382.528,246.11 381.028,249.11 378.5,251.5C 378.771,246.087 378.271,240.754 377,235.5C 363.836,213.051 347.669,192.884 328.5,175C 326.283,173.277 323.95,171.777 321.5,170.5C 315.271,168.021 309.604,164.521 304.5,160C 291.918,159.417 279.752,156.917 268,152.5C 269.242,158.755 273.076,162.921 279.5,165C 284.851,165.263 290.184,165.263 295.5,165C 293.34,166.332 291.34,167.832 289.5,169.5C 286.894,170.85 286.894,172.35 289.5,174C 293.232,175.969 297.232,176.969 301.5,177C 298.042,178.415 294.375,178.915 290.5,178.5C 285.943,177.443 283.277,174.61 282.5,170C 280.782,169.654 279.115,169.154 277.5,168.5C 277.167,168.833 276.833,169.167 276.5,169.5C 280.918,174.923 285.918,179.589 291.5,183.5C 290.054,184.613 288.387,184.78 286.5,184C 284.14,182.82 281.807,181.653 279.5,180.5C 278.262,179.588 276.928,179.421 275.5,180C 269.375,184.456 263.542,189.289 258,194.5C 255.994,197.536 255.16,200.869 255.5,204.5C 255.5,206.5 255.5,208.5 255.5,210.5C 255.749,215.836 254.582,220.836 252,225.5C 246.443,230.691 240.61,235.524 234.5,240C 235.38,241.356 235.714,242.856 235.5,244.5C 233.782,246.926 233.282,249.593 234,252.5C 240.909,258.157 248.409,258.99 256.5,255C 262.427,252.065 268.094,248.732 273.5,245C 274.337,243.989 274.67,242.822 274.5,241.5C 278.73,240.831 280.563,242.498 280,246.5C 271.434,253.367 261.934,258.533 251.5,262C 256.838,263.841 262.171,263.507 267.5,261C 271.327,259.254 274.993,257.254 278.5,255C 292.3,254.911 303.967,250.077 313.5,240.5C 313.5,241.167 313.5,241.833 313.5,242.5C 310.582,246.924 307.082,250.924 303,254.5C 303.158,258.459 303.325,262.459 303.5,266.5C 301.435,278.233 300.102,290.067 299.5,302C 299.666,306.167 300.666,310.001 302.5,313.5C 308.026,323.205 314.192,332.538 321,341.5C 322.352,339.406 322.852,337.073 322.5,334.5C 323.5,334.5 324.5,334.5 325.5,334.5C 325.5,338.5 325.5,342.5 325.5,346.5C 324.771,353.415 323.104,360.082 320.5,366.5C 317.186,373.128 313.853,379.795 310.5,386.5C 308.006,391.653 305.339,396.819 302.5,402C 300.913,402.862 299.246,403.529 297.5,404C 290.449,404.211 283.449,404.878 276.5,406C 272.455,406.551 269.788,408.718 268.5,412.5C 263.688,418.61 264.688,423.444 271.5,427C 273.971,427.706 276.305,427.373 278.5,426C 279.694,422.238 281.361,418.738 283.5,415.5C 285.567,413.488 287.9,413.154 290.5,414.5C 290.137,415.183 289.804,415.85 289.5,416.5C 285.957,419.287 284.457,422.954 285,427.5C 292.595,430.95 299.262,429.617 305,423.5C 307.519,416.249 312.352,411.416 319.5,409C 325.311,399.691 332.644,391.857 341.5,385.5C 341.196,386.15 340.863,386.817 340.5,387.5C 342.291,388.17 343.958,388.837 345.5,389.5C 337.185,394.316 330.685,400.983 326,409.5C 323.635,412.869 320.468,415.036 316.5,416C 313.386,419.06 310.886,422.56 309,426.5C 301.012,434.981 291.845,436.647 281.5,431.5C 272.922,434.122 266.089,431.788 261,424.5C 260.596,416.129 263.429,408.963 269.5,403C 272.363,401.601 275.363,400.601 278.5,400C 284.833,399.667 291.167,399.333 297.5,399C 303.367,388.768 308.867,378.268 314,367.5C 316.314,362.56 317.814,357.393 318.5,352C 318.671,348.871 317.838,346.037 316,343.5C 308.573,333.644 301.907,323.31 296,312.5C 295.021,307.889 294.521,303.223 294.5,298.5C 294.965,289.076 296.132,279.743 298,270.5C 298.667,266.5 298.667,262.5 298,258.5C 296.938,257.903 295.772,257.57 294.5,257.5C 289.845,258.398 285.178,259.231 280.5,260C 271.694,265.95 262.028,268.617 251.5,268C 248.638,267.07 246.305,265.403 244.5,263C 236.499,261.245 229.999,257.079 225,250.5C 224.21,247.366 224.543,244.366 226,241.5C 231.334,235.262 237.501,230.096 244.5,226C 246.81,224.363 248.31,222.196 249,219.5C 249.031,211.227 249.864,203.06 251.5,195C 250.68,192.846 249.18,191.346 247,190.5C 243.379,185.531 242.712,180.198 245,174.5C 246.299,173.02 247.966,172.354 250,172.5C 257.359,174.909 264.859,175.576 272.5,174.5C 265.926,167.37 262.76,159.037 263,149.5C 263.956,148.106 265.289,147.439 267,147.5C 278.529,151.343 290.362,153.51 302.5,154C 307.42,154.792 311.42,157.126 314.5,161C 318.993,163.079 323.326,165.412 327.5,168C 349.387,187.211 367.554,209.378 382,234.5C 383.5,236 385,237.5 386.5,239C 395.26,243.714 404.26,247.88 413.5,251.5C 414.521,250.998 414.688,250.332 414,249.5C 397.203,232.85 397.37,216.35 414.5,200C 422.397,194.857 431.064,191.857 440.5,191C 441.342,185.154 444.676,181.487 450.5,180C 467.093,179.047 482.093,183.38 495.5,193C 498.003,193.874 500.003,193.207 501.5,191C 508.114,189.475 513.78,191.142 518.5,196C 529.591,204.691 536.758,215.857 540,229.5C 540.616,236.381 539.616,243.048 537,249.5C 534.383,257.4 531.216,265.067 527.5,272.5C 529.739,276.247 532.573,279.58 536,282.5C 543.097,294.308 546.264,307.142 545.5,321C 545.288,330.222 544.788,339.388 544,348.5C 549.473,353.061 554.473,358.061 559,363.5C 561.937,373.257 563.27,383.257 563,393.5C 563.791,394.745 564.291,396.078 564.5,397.5 Z"/></g>
<g><path style="opacity:1" fill="#de8a86" d="M 525.5,242.5 C 524.09,252.64 522.09,262.64 519.5,272.5C 518.89,273.391 518.557,274.391 518.5,275.5C 515.553,274.027 512.553,272.527 509.5,271C 508.978,270.439 508.645,269.772 508.5,269C 511.532,263.103 514.699,257.269 518,251.5C 520.042,248.06 522.542,245.06 525.5,242.5 Z"/></g>
<g><path style="opacity:1" fill="#da92a4" d="M 313.5,242.5 C 313.185,246.371 313.518,250.038 314.5,253.5C 314.5,254.167 314.5,254.833 314.5,255.5C 312.863,257.316 311.363,259.316 310,261.5C 308.223,263.79 306.056,265.457 303.5,266.5C 303.325,262.459 303.158,258.459 303,254.5C 307.082,250.924 310.582,246.924 313.5,242.5 Z"/></g>
<g><path style="opacity:1" fill="#d88ea1" d="M 534.5,230.5 C 535.634,232.966 535.801,235.633 535,238.5C 533.535,243.894 531.869,249.228 530,254.5C 527.748,261.352 524.248,267.352 519.5,272.5C 522.09,262.64 524.09,252.64 525.5,242.5C 525.5,241.833 525.5,241.167 525.5,240.5C 527.949,237.958 530.616,235.624 533.5,233.5C 534.386,232.675 534.719,231.675 534.5,230.5 Z"/></g>
<g><path style="opacity:1" fill="#dd8c83" d="M 315.5,253.5 C 315.167,253.5 314.833,253.5 314.5,253.5C 313.518,250.038 313.185,246.371 313.5,242.5C 313.5,241.833 313.5,241.167 313.5,240.5C 313.5,240.167 313.5,239.833 313.5,239.5C 315.868,235.933 317.868,232.1 319.5,228C 319.833,227.833 320.167,227.667 320.5,227.5C 321.409,236.622 319.743,245.288 315.5,253.5 Z"/></g>
<g><path style="opacity:1" fill="#faecd5" d="M 313.5,239.5 C 313.5,239.833 313.5,240.167 313.5,240.5C 303.967,250.077 292.3,254.911 278.5,255C 274.993,257.254 271.327,259.254 267.5,261C 262.171,263.507 256.838,263.841 251.5,262C 261.934,258.533 271.434,253.367 280,246.5C 280.563,242.498 278.73,240.831 274.5,241.5C 274.67,242.822 274.337,243.989 273.5,245C 268.094,248.732 262.427,252.065 256.5,255C 248.409,258.99 240.909,258.157 234,252.5C 233.282,249.593 233.782,246.926 235.5,244.5C 250.941,244.102 264.274,238.769 275.5,228.5C 278.823,224.54 282.156,220.54 285.5,216.5C 288.646,214.425 291.979,212.592 295.5,211C 305.475,209.239 310.975,213.406 312,223.5C 312.173,229.016 312.673,234.349 313.5,239.5 Z"/></g>
<g><path style="opacity:1" fill="#fcecd0" d="M 268.5,210.5 C 267.5,211.167 266.5,211.833 265.5,212.5C 262.316,211.677 258.983,211.01 255.5,210.5C 255.5,208.5 255.5,206.5 255.5,204.5C 257.464,203.218 259.464,201.885 261.5,200.5C 271.656,198.325 273.99,201.658 268.5,210.5 Z"/></g>
<g><path style="opacity:1" fill="#fae9d2" d="M 534.5,230.5 C 534.719,231.675 534.386,232.675 533.5,233.5C 530.616,235.624 527.949,237.958 525.5,240.5C 526.609,230.679 525.109,221.345 521,212.5C 518.217,209.86 515.05,207.86 511.5,206.5C 509.249,207.626 507.416,209.293 506,211.5C 494.222,203.197 481.722,196.364 468.5,191C 464.134,190.114 459.967,190.614 456,192.5C 455.333,194.167 455.333,195.833 456,197.5C 457.529,198.729 458.696,200.229 459.5,202C 450.198,201.481 440.865,201.481 431.5,202C 426.405,203.38 421.405,205.047 416.5,207C 413.36,210.812 410.36,214.645 407.5,218.5C 409.055,215.06 410.888,211.727 413,208.5C 423.736,198.266 436.569,194.1 451.5,196C 448.391,193.159 447.391,189.826 448.5,186C 454.5,185.333 460.5,185.333 466.5,186C 480.715,187.92 492.215,194.42 501,205.5C 501.206,202.377 501.873,199.377 503,196.5C 505.064,195.409 507.231,195.242 509.5,196C 522.64,204.149 530.973,215.649 534.5,230.5 Z"/></g>
<g><path style="opacity:1" fill="#d78489" d="M 248.5,177.5 C 254.052,179.137 259.719,180.304 265.5,181C 261.989,183.847 258.489,186.68 255,189.5C 249.983,187.137 247.816,183.137 248.5,177.5 Z"/></g>
<g><path style="opacity:1" fill="#f5ded0" d="M 290.5,178.5 C 292.607,179.468 294.941,179.802 297.5,179.5C 296.267,181.796 294.267,183.13 291.5,183.5C 285.918,179.589 280.918,174.923 276.5,169.5C 276.833,169.167 277.167,168.833 277.5,168.5C 279.115,169.154 280.782,169.654 282.5,170C 283.277,174.61 285.943,177.443 290.5,178.5 Z"/></g>
<g><path style="opacity:1" fill="#d48881" d="M 289.5,169.5 C 289.5,170.5 289.5,171.5 289.5,172.5C 296.508,172.334 303.508,172.5 310.5,173C 307.289,177.94 302.956,180.107 297.5,179.5C 294.941,179.802 292.607,179.468 290.5,178.5C 294.375,178.915 298.042,178.415 301.5,177C 297.232,176.969 293.232,175.969 289.5,174C 286.894,172.35 286.894,170.85 289.5,169.5 Z"/></g>
<g><path style="opacity:1" fill="#fed488" d="M 321.5,170.5 C 323.95,171.777 326.283,173.277 328.5,175C 347.669,192.884 363.836,213.051 377,235.5C 378.271,240.754 378.771,246.087 378.5,251.5C 377.023,253.807 375.023,255.64 372.5,257C 379.002,256.828 384.502,254.328 389,249.5C 389.483,248.552 389.649,247.552 389.5,246.5C 399.463,251.646 409.796,255.979 420.5,259.5C 431.806,266.038 444.14,269.371 457.5,269.5C 462.693,269.698 467.693,268.865 472.5,267C 475.076,266.218 477.076,264.718 478.5,262.5C 480.396,261.534 482.396,261.201 484.5,261.5C 490.409,262.036 496.076,263.203 501.5,265C 499.534,263.54 497.868,261.873 496.5,260C 499.694,256.451 502.527,252.618 505,248.5C 509.098,241.972 509.432,235.305 506,228.5C 500.567,223.2 494.067,220.2 486.5,219.5C 486.389,218.883 486.056,218.383 485.5,218C 478.821,215.505 472.154,213.338 465.5,211.5C 462.851,209.891 459.851,209.057 456.5,209C 450.747,208.149 445.08,208.483 439.5,210C 436.694,212.937 437.027,215.437 440.5,217.5C 441.5,218.167 442.5,218.833 443.5,219.5C 436.927,220.195 430.26,221.195 423.5,222.5C 418.216,226.18 416.383,231.18 418,237.5C 418.66,239.324 419.827,240.657 421.5,241.5C 421.286,243.144 421.62,244.644 422.5,246C 420.494,245.85 418.494,245.35 416.5,244.5C 408.361,237.567 405.361,228.9 407.5,218.5C 410.36,214.645 413.36,210.812 416.5,207C 421.405,205.047 426.405,203.38 431.5,202C 440.865,201.481 450.198,201.481 459.5,202C 458.696,200.229 457.529,198.729 456,197.5C 455.333,195.833 455.333,194.167 456,192.5C 459.967,190.614 464.134,190.114 468.5,191C 481.722,196.364 494.222,203.197 506,211.5C 507.416,209.293 509.249,207.626 511.5,206.5C 515.05,207.86 518.217,209.86 521,212.5C 525.109,221.345 526.609,230.679 525.5,240.5C 525.5,241.167 525.5,241.833 525.5,242.5C 522.542,245.06 520.042,248.06 518,251.5C 514.699,257.269 511.532,263.103 508.5,269C 508.645,269.772 508.978,270.439 509.5,271C 512.553,272.527 515.553,274.027 518.5,275.5C 530.588,281.281 537.254,290.948 538.5,304.5C 538.35,320.022 538.35,335.355 538.5,350.5C 539.833,351.167 540.833,352.167 541.5,353.5C 540.425,359.359 542.258,364.359 547,368.5C 549.118,373.953 549.952,379.62 549.5,385.5C 545.621,382.753 542.954,379.086 541.5,374.5C 540.148,373.476 538.815,372.476 537.5,371.5C 531.364,365.942 524.031,362.775 515.5,362C 508.196,360.797 500.863,360.463 493.5,361C 492.627,362.045 491.627,362.878 490.5,363.5C 487.865,362.189 485.531,360.522 483.5,358.5C 479.595,353.032 475.928,347.365 472.5,341.5C 471.962,339.883 471.629,338.216 471.5,336.5C 462.091,335.044 452.591,334.377 443,334.5C 430.095,335.101 417.261,336.434 404.5,338.5C 399.155,337.927 393.822,337.26 388.5,336.5C 383.138,337.862 379.804,341.195 378.5,346.5C 369.675,355.153 360.341,363.319 350.5,371C 348.392,371.36 346.392,372.027 344.5,373C 331.189,386.647 318.189,400.647 305.5,415C 300.412,418.918 295.078,419.418 289.5,416.5C 289.804,415.85 290.137,415.183 290.5,414.5C 287.9,413.154 285.567,413.488 283.5,415.5C 279.241,414.139 274.907,413.139 270.5,412.5C 270.511,410.983 271.177,409.816 272.5,409C 280.021,407.053 287.688,406.053 295.5,406C 300.058,405.054 304.058,403.054 307.5,400C 307.167,399.667 306.833,399.333 306.5,399C 308.155,397.556 308.822,395.722 308.5,393.5C 309.675,393.719 310.675,393.386 311.5,392.5C 310.652,390.591 310.318,388.591 310.5,386.5C 313.853,379.795 317.186,373.128 320.5,366.5C 323.398,364.368 324.898,361.368 325,357.5C 325.333,357.833 325.667,358.167 326,358.5C 328.44,344.027 329.107,329.36 328,314.5C 321.873,294.67 317.707,274.337 315.5,253.5C 319.743,245.288 321.409,236.622 320.5,227.5C 320.167,227.667 319.833,227.833 319.5,228C 317.868,232.1 315.868,235.933 313.5,239.5C 312.673,234.349 312.173,229.016 312,223.5C 310.975,213.406 305.475,209.239 295.5,211C 291.979,212.592 288.646,214.425 285.5,216.5C 285.126,213.38 283.293,212.046 280,212.5C 272.803,213.363 269.803,217.363 271,224.5C 271.748,226.751 273.248,228.084 275.5,228.5C 264.274,238.769 250.941,244.102 235.5,244.5C 235.714,242.856 235.38,241.356 234.5,240C 240.61,235.524 246.443,230.691 252,225.5C 254.582,220.836 255.749,215.836 255.5,210.5C 258.983,211.01 262.316,211.677 265.5,212.5C 263.782,214.926 263.282,217.593 264,220.5C 269.62,215.55 275.787,211.384 282.5,208C 277.444,206.911 272.778,207.744 268.5,210.5C 273.99,201.658 271.656,198.325 261.5,200.5C 259.464,201.885 257.464,203.218 255.5,204.5C 255.16,200.869 255.994,197.536 258,194.5C 263.542,189.289 269.375,184.456 275.5,180C 276.928,179.421 278.262,179.588 279.5,180.5C 280.363,181.94 280.363,183.274 279.5,184.5C 280.5,185.5 281.5,186.5 282.5,187.5C 283.192,186.975 283.692,186.308 284,185.5C 286.401,186.602 288.901,186.769 291.5,186C 299.104,183.531 306.104,180.031 312.5,175.5C 312.5,173.833 312.5,172.167 312.5,170.5C 310.143,170.663 307.81,170.497 305.5,170C 307.402,169.801 308.902,168.967 310,167.5C 313.75,168.805 317.583,169.805 321.5,170.5 Z"/></g>
<g><path style="opacity:1" fill="#f7c899" d="M 421.5,241.5 C 426.637,248.307 432.97,253.641 440.5,257.5C 431.045,255.681 423.045,251.348 416.5,244.5C 418.494,245.35 420.494,245.85 422.5,246C 421.62,244.644 421.286,243.144 421.5,241.5 Z"/></g>
<g><path style="opacity:1" fill="#d98885" d="M 389.5,246.5 C 389.649,247.552 389.483,248.552 389,249.5C 384.502,254.328 379.002,256.828 372.5,257C 375.023,255.64 377.023,253.807 378.5,251.5C 381.028,249.11 382.528,246.11 383,242.5C 385.314,243.733 387.481,245.067 389.5,246.5 Z"/></g>
<g><path style="opacity:1" fill="#fcf5e2" d="M 482.5,226.5 C 488.434,225.889 494.1,226.722 499.5,229C 503.764,233.168 504.597,238.002 502,243.5C 499.346,248.633 495.846,253.133 491.5,257C 484.591,256.083 477.591,255.416 470.5,255C 470.541,250.249 468.707,246.416 465,243.5C 464.543,238.92 466.376,235.42 470.5,233C 474.434,230.536 478.434,228.369 482.5,226.5 Z"/></g>
<g><path style="opacity:1" fill="#a65b6f" d="M 465.5,222.5 C 470.179,222.334 474.845,222.501 479.5,223C 476.382,224.059 473.382,225.392 470.5,227C 463.717,230.584 460.05,236.084 459.5,243.5C 454.91,239.357 454.41,234.69 458,229.5C 460.396,226.933 462.896,224.6 465.5,222.5 Z"/></g>
<g><path style="opacity:1" fill="#fdd8ad" d="M 443.5,219.5 C 444.376,219.369 445.043,219.702 445.5,220.5C 437.762,220.768 430.429,222.601 423.5,226C 418.932,230.605 418.265,235.772 421.5,241.5C 419.827,240.657 418.66,239.324 418,237.5C 416.383,231.18 418.216,226.18 423.5,222.5C 430.26,221.195 436.927,220.195 443.5,219.5 Z"/></g>
<g><path style="opacity:1" fill="#ec8254" d="M 285.5,216.5 C 282.156,220.54 278.823,224.54 275.5,228.5C 273.248,228.084 271.748,226.751 271,224.5C 269.803,217.363 272.803,213.363 280,212.5C 283.293,212.046 285.126,213.38 285.5,216.5 Z"/></g>
<g><path style="opacity:1" fill="#541f25" d="M 265.5,212.5 C 266.5,211.833 267.5,211.167 268.5,210.5C 272.778,207.744 277.444,206.911 282.5,208C 275.787,211.384 269.62,215.55 264,220.5C 263.282,217.593 263.782,214.926 265.5,212.5 Z"/></g>
<g><path style="opacity:1" fill="#de8887" d="M 465.5,211.5 C 472.154,213.338 478.821,215.505 485.5,218C 486.056,218.383 486.389,218.883 486.5,219.5C 480.195,218.513 473.862,218.347 467.5,219C 464.968,219.619 462.635,220.619 460.5,222C 462.134,222.494 463.801,222.66 465.5,222.5C 462.896,224.6 460.396,226.933 458,229.5C 454.41,234.69 454.91,239.357 459.5,243.5C 460.737,246.245 462.57,248.578 465,250.5C 465.684,251.784 465.517,252.951 464.5,254C 456.798,257.005 448.798,258.171 440.5,257.5C 432.97,253.641 426.637,248.307 421.5,241.5C 418.265,235.772 418.932,230.605 423.5,226C 430.429,222.601 437.762,220.768 445.5,220.5C 445.043,219.702 444.376,219.369 443.5,219.5C 442.5,218.833 441.5,218.167 440.5,217.5C 440.081,214.675 441.081,212.509 443.5,211C 450.856,210.364 458.189,210.531 465.5,211.5 Z"/></g>
<g><path style="opacity:1" fill="#fdd7a9" d="M 465.5,211.5 C 458.189,210.531 450.856,210.364 443.5,211C 441.081,212.509 440.081,214.675 440.5,217.5C 437.027,215.437 436.694,212.937 439.5,210C 445.08,208.483 450.747,208.149 456.5,209C 459.851,209.057 462.851,209.891 465.5,211.5 Z"/></g>
<g><path style="opacity:1" fill="#fcd18e" d="M 321.5,170.5 C 317.583,169.805 313.75,168.805 310,167.5C 308.902,168.967 307.402,169.801 305.5,170C 307.81,170.497 310.143,170.663 312.5,170.5C 312.5,172.167 312.5,173.833 312.5,175.5C 306.104,180.031 299.104,183.531 291.5,186C 288.901,186.769 286.401,186.602 284,185.5C 283.692,186.308 283.192,186.975 282.5,187.5C 281.5,186.5 280.5,185.5 279.5,184.5C 280.363,183.274 280.363,181.94 279.5,180.5C 281.807,181.653 284.14,182.82 286.5,184C 288.387,184.78 290.054,184.613 291.5,183.5C 294.267,183.13 296.267,181.796 297.5,179.5C 302.956,180.107 307.289,177.94 310.5,173C 303.508,172.5 296.508,172.334 289.5,172.5C 289.5,171.5 289.5,170.5 289.5,169.5C 291.34,167.832 293.34,166.332 295.5,165C 290.184,165.263 284.851,165.263 279.5,165C 273.076,162.921 269.242,158.755 268,152.5C 279.752,156.917 291.918,159.417 304.5,160C 309.604,164.521 315.271,168.021 321.5,170.5 Z"/></g>
<g><path style="opacity:1" fill="#fbedd6" d="M 314.5,255.5 C 315.763,273.983 319.263,291.983 325,309.5C 325.495,311.473 325.662,313.473 325.5,315.5C 322.972,316.011 320.472,316.678 318,317.5C 314.937,316.119 312.104,314.286 309.5,312C 307.5,311.333 305.5,311.333 303.5,312C 302.944,312.383 302.611,312.883 302.5,313.5C 300.666,310.001 299.666,306.167 299.5,302C 300.102,290.067 301.435,278.233 303.5,266.5C 306.056,265.457 308.223,263.79 310,261.5C 311.363,259.316 312.863,257.316 314.5,255.5 Z"/></g>
<g><path style="opacity:1" fill="#dd8c86" d="M 420.5,259.5 C 428.323,261.797 436.323,262.797 444.5,262.5C 454.006,261.899 463.506,261.232 473,260.5C 477.015,260.501 480.849,260.835 484.5,261.5C 482.396,261.201 480.396,261.534 478.5,262.5C 477.076,264.718 475.076,266.218 472.5,267C 467.693,268.865 462.693,269.698 457.5,269.5C 444.14,269.371 431.806,266.038 420.5,259.5 Z"/></g>
<g><path style="opacity:1" fill="#d990a0" d="M 325.5,315.5 C 326.833,325.833 326.833,336.167 325.5,346.5C 325.5,342.5 325.5,338.5 325.5,334.5C 324.5,334.5 323.5,334.5 322.5,334.5C 322.852,337.073 322.352,339.406 321,341.5C 314.192,332.538 308.026,323.205 302.5,313.5C 302.611,312.883 302.944,312.383 303.5,312C 305.5,311.333 307.5,311.333 309.5,312C 312.104,314.286 314.937,316.119 318,317.5C 320.472,316.678 322.972,316.011 325.5,315.5 Z"/></g>
<g><path style="opacity:1" fill="#fcd295" d="M 314.5,253.5 C 314.833,253.5 315.167,253.5 315.5,253.5C 317.707,274.337 321.873,294.67 328,314.5C 329.107,329.36 328.44,344.027 326,358.5C 325.667,358.167 325.333,357.833 325,357.5C 324.898,361.368 323.398,364.368 320.5,366.5C 323.104,360.082 324.771,353.415 325.5,346.5C 326.833,336.167 326.833,325.833 325.5,315.5C 325.662,313.473 325.495,311.473 325,309.5C 319.263,291.983 315.763,273.983 314.5,255.5C 314.5,254.833 314.5,254.167 314.5,253.5 Z"/></g>
<g><path style="opacity:1" fill="#fcce9a" d="M 538.5,304.5 C 539.943,310.1 540.61,315.933 540.5,322C 540.044,331.52 539.377,341.02 538.5,350.5C 538.35,335.355 538.35,320.022 538.5,304.5 Z"/></g>
<g><path style="opacity:1" fill="#f9d898" d="M 472.5,341.5 C 468.369,338.46 463.703,336.627 458.5,336C 448.5,335.333 438.5,335.333 428.5,336C 422.004,338.944 415.171,340.111 408,339.5C 401.241,339.63 394.574,338.964 388,337.5C 384.839,340.47 381.672,343.47 378.5,346.5C 379.804,341.195 383.138,337.862 388.5,336.5C 393.822,337.26 399.155,337.927 404.5,338.5C 417.261,336.434 430.095,335.101 443,334.5C 452.591,334.377 462.091,335.044 471.5,336.5C 471.629,338.216 471.962,339.883 472.5,341.5 Z"/></g>
<g><path style="opacity:1" fill="#f8e7d2" d="M 541.5,353.5 C 545.141,356.968 548.974,360.302 553,363.5C 556.984,371.701 558.484,380.368 557.5,389.5C 557.5,389.833 557.5,390.167 557.5,390.5C 555.313,389.242 552.98,388.242 550.5,387.5C 550.167,386.833 549.833,386.167 549.5,385.5C 549.952,379.62 549.118,373.953 547,368.5C 542.258,364.359 540.425,359.359 541.5,353.5 Z"/></g>
<g><path style="opacity:1" fill="#dd917e" d="M 537.5,371.5 C 533.814,369.767 530.148,367.934 526.5,366C 514.929,362.171 503.263,361.671 491.5,364.5C 490.833,364.5 490.5,364.167 490.5,363.5C 491.627,362.878 492.627,362.045 493.5,361C 500.863,360.463 508.196,360.797 515.5,362C 524.031,362.775 531.364,365.942 537.5,371.5 Z"/></g>
<g><path style="opacity:1" fill="#de8688" d="M 537.5,371.5 C 538.815,372.476 540.148,373.476 541.5,374.5C 542.954,379.086 545.621,382.753 549.5,385.5C 549.833,386.167 550.167,386.833 550.5,387.5C 549.889,392.618 551.056,397.285 554,401.5C 557.333,404.833 560.667,408.167 564,411.5C 566.537,414.86 568.037,418.527 568.5,422.5C 566.511,423.887 564.678,423.553 563,421.5C 561.219,418.726 559.885,415.726 559,412.5C 558.333,415.5 558.333,418.5 559,421.5C 559.685,424.057 561.185,425.891 563.5,427C 560.706,428.557 557.706,428.89 554.5,428C 546.756,423.591 540.256,417.758 535,410.5C 531.053,401.377 527.72,392.044 525,382.5C 523.457,380.622 521.624,379.122 519.5,378C 508.059,377.693 498.726,373.193 491.5,364.5C 503.263,361.671 514.929,362.171 526.5,366C 530.148,367.934 533.814,369.767 537.5,371.5 Z"/></g>
<g><path style="opacity:1" fill="#fbe9d2" d="M 472.5,341.5 C 475.928,347.365 479.595,353.032 483.5,358.5C 477.924,356.537 472.591,354.204 467.5,351.5C 462.465,347.319 456.798,344.152 450.5,342C 435.118,341.226 419.785,341.726 404.5,343.5C 399.138,343.18 393.804,343.013 388.5,343C 386.959,344.371 385.625,345.871 384.5,347.5C 373.686,358.255 362.019,368.089 349.5,377C 346.629,379.703 343.962,382.536 341.5,385.5C 332.644,391.857 325.311,399.691 319.5,409C 312.352,411.416 307.519,416.249 305,423.5C 299.262,429.617 292.595,430.95 285,427.5C 284.457,422.954 285.957,419.287 289.5,416.5C 295.078,419.418 300.412,418.918 305.5,415C 318.189,400.647 331.189,386.647 344.5,373C 346.392,372.027 348.392,371.36 350.5,371C 360.341,363.319 369.675,355.153 378.5,346.5C 381.672,343.47 384.839,340.47 388,337.5C 394.574,338.964 401.241,339.63 408,339.5C 415.171,340.111 422.004,338.944 428.5,336C 438.5,335.333 448.5,335.333 458.5,336C 463.703,336.627 468.369,338.46 472.5,341.5 Z"/></g>
<g><path style="opacity:1" fill="#d992a5" d="M 467.5,351.5 C 463.089,350.307 458.756,348.807 454.5,347C 447.5,346.333 440.5,346.333 433.5,347C 416.722,349.922 400.056,353.422 383.5,357.5C 382.833,357.167 382.167,356.833 381.5,356.5C 384.093,353.732 385.093,350.732 384.5,347.5C 385.625,345.871 386.959,344.371 388.5,343C 393.804,343.013 399.138,343.18 404.5,343.5C 419.785,341.726 435.118,341.226 450.5,342C 456.798,344.152 462.465,347.319 467.5,351.5 Z"/></g>
<g><path style="opacity:1" fill="#511b2d" d="M 467.5,351.5 C 472.591,354.204 477.924,356.537 483.5,358.5C 485.531,360.522 487.865,362.189 490.5,363.5C 490.5,364.167 490.833,364.5 491.5,364.5C 498.726,373.193 508.059,377.693 519.5,378C 521.624,379.122 523.457,380.622 525,382.5C 527.72,392.044 531.053,401.377 535,410.5C 540.256,417.758 546.756,423.591 554.5,428C 557.706,428.89 560.706,428.557 563.5,427C 561.185,425.891 559.685,424.057 559,421.5C 558.333,418.5 558.333,415.5 559,412.5C 559.885,415.726 561.219,418.726 563,421.5C 564.678,423.553 566.511,423.887 568.5,422.5C 569.537,420.262 569.703,417.929 569,415.5C 565.588,408.342 561.922,401.342 558,394.5C 557.51,393.207 557.343,391.873 557.5,390.5C 557.5,390.167 557.5,389.833 557.5,389.5C 558.808,383.963 558.808,378.296 557.5,372.5C 558.325,371.614 559.325,371.281 560.5,371.5C 560.334,378.841 560.5,386.174 561,393.5C 561.74,395.319 562.907,396.652 564.5,397.5C 569.818,403.642 573.151,410.808 574.5,419C 572.074,430.387 565.074,435.054 553.5,433C 535.559,423.95 525.392,409.45 523,389.5C 522,387.833 521,386.167 520,384.5C 513.709,382.409 507.376,380.409 501,378.5C 498.089,385.819 493.589,391.986 487.5,397C 482.179,401.328 476.512,405.162 470.5,408.5C 468.138,414.725 465.138,420.558 461.5,426C 449.255,428.919 436.922,429.253 424.5,427C 418.312,418.666 419.646,411.666 428.5,406C 433.267,403.635 438.1,401.469 443,399.5C 445.855,393.271 447.688,386.771 448.5,380C 448.733,376.541 447.899,373.374 446,370.5C 441.45,366.385 437.616,361.718 434.5,356.5C 432.13,354.234 429.297,353.234 426,353.5C 414.031,355.784 402.198,358.617 390.5,362C 386.373,366.014 383.54,370.847 382,376.5C 380.357,378.977 378.524,381.31 376.5,383.5C 377.432,386.53 378.765,389.363 380.5,392C 389.233,392.612 396.066,396.446 401,403.5C 401.667,405.833 401.667,408.167 401,410.5C 399.054,413.139 398.054,416.139 398,419.5C 397.167,421.667 395.667,423.167 393.5,424C 389.928,425.405 386.261,425.738 382.5,425C 378.167,422 374.5,418.333 371.5,414C 365.024,412.063 358.691,409.73 352.5,407C 349.265,401.449 346.932,395.615 345.5,389.5C 343.958,388.837 342.291,388.17 340.5,387.5C 340.863,386.817 341.196,386.15 341.5,385.5C 343.962,382.536 346.629,379.703 349.5,377C 362.019,368.089 373.686,358.255 384.5,347.5C 385.093,350.732 384.093,353.732 381.5,356.5C 382.167,356.833 382.833,357.167 383.5,357.5C 400.056,353.422 416.722,349.922 433.5,347C 440.5,346.333 447.5,346.333 454.5,347C 458.756,348.807 463.089,350.307 467.5,351.5 Z"/></g>
<g><path style="opacity:1" fill="#c96874" d="M 374.5,363.5 C 371.245,369.008 368.245,374.675 365.5,380.5C 360.901,386.3 357.235,392.633 354.5,399.5C 351.495,394.31 350.328,388.644 351,382.5C 358.772,376.038 366.606,369.705 374.5,363.5 Z"/></g>
<g><path style="opacity:1" fill="#d28797" d="M 486.5,370.5 C 489.558,372.556 491.891,375.223 493.5,378.5C 492.478,382.072 490.978,385.405 489,388.5C 487.549,390.464 485.716,391.797 483.5,392.5C 483.664,389.813 483.497,387.146 483,384.5C 482.502,382.456 481.335,381.122 479.5,380.5C 479.5,380.167 479.5,379.833 479.5,379.5C 482.052,376.76 484.385,373.76 486.5,370.5 Z"/></g>
<g><path style="opacity:1" fill="#d18696" d="M 376.5,373.5 C 376.103,372.475 375.437,372.308 374.5,373C 371.938,375.733 369.271,378.233 366.5,380.5C 366.167,380.5 365.833,380.5 365.5,380.5C 368.245,374.675 371.245,369.008 374.5,363.5C 376.693,362.203 379.027,362.203 381.5,363.5C 380.33,367.173 378.663,370.507 376.5,373.5 Z"/></g>
<g><path style="opacity:1" fill="#c96873" d="M 454.5,353.5 C 466.337,357.084 477.004,362.75 486.5,370.5C 484.385,373.76 482.052,376.76 479.5,379.5C 478.955,377.407 478.122,375.407 477,373.5C 471.194,366.849 464.694,361.182 457.5,356.5C 456.694,355.272 455.694,354.272 454.5,353.5 Z"/></g>
<g><path style="opacity:1" fill="#c7796f" d="M 454.5,353.5 C 455.694,354.272 456.694,355.272 457.5,356.5C 452.317,354.65 446.983,354.15 441.5,355C 442.582,356.33 443.249,357.83 443.5,359.5C 437.18,352.926 438.513,350.092 447.5,351C 450.104,351.39 452.438,352.224 454.5,353.5 Z"/></g>
<g><path style="opacity:1" fill="#d08d63" d="M 457.5,356.5 C 464.694,361.182 471.194,366.849 477,373.5C 478.122,375.407 478.955,377.407 479.5,379.5C 479.5,379.833 479.5,380.167 479.5,380.5C 474.601,388.239 469.101,395.572 463,402.5C 461.468,406.762 460.135,411.095 459,415.5C 458.167,416.333 457.333,417.167 456.5,418C 451.845,418.499 447.179,418.666 442.5,418.5C 444.316,416.863 446.316,415.363 448.5,414C 443.352,413.312 439.352,415.145 436.5,419.5C 433.375,418.521 430.042,418.187 426.5,418.5C 426.5,419.5 426.5,420.5 426.5,421.5C 425.198,418.893 425.364,416.227 427,413.5C 432.369,409.732 438.202,406.899 444.5,405C 451.394,395.645 454.227,385.145 453,373.5C 450.369,368.387 447.202,363.72 443.5,359.5C 443.249,357.83 442.582,356.33 441.5,355C 446.983,354.15 452.317,354.65 457.5,356.5 Z"/></g>
<g><path style="opacity:1" fill="#ce8c64" d="M 365.5,380.5 C 365.833,380.5 366.167,380.5 366.5,380.5C 369.049,386.599 371.882,392.599 375,398.5C 378.523,400.901 382.356,402.734 386.5,404C 388.771,406.782 391.437,408.949 394.5,410.5C 393.341,412.377 391.674,412.877 389.5,412C 386.827,410.999 384.493,409.499 382.5,407.5C 381.432,409.187 381.599,410.854 383,412.5C 385.67,415.25 388.836,417.083 392.5,418C 390.217,420.19 387.551,420.857 384.5,420C 380.5,417.333 377.167,414 374.5,410C 368.993,407.54 363.327,405.54 357.5,404C 355.859,402.871 354.859,401.371 354.5,399.5C 357.235,392.633 360.901,386.3 365.5,380.5 Z"/></g>
<g><path style="opacity:1" fill="#d98ea1" d="M 550.5,387.5 C 552.98,388.242 555.313,389.242 557.5,390.5C 557.343,391.873 557.51,393.207 558,394.5C 561.922,401.342 565.588,408.342 569,415.5C 569.703,417.929 569.537,420.262 568.5,422.5C 568.037,418.527 566.537,414.86 564,411.5C 560.667,408.167 557.333,404.833 554,401.5C 551.056,397.285 549.889,392.618 550.5,387.5 Z"/></g>
<g><path style="opacity:1" fill="#ebccb0" d="M 376.5,373.5 C 374.491,376.507 372.491,379.507 370.5,382.5C 371.997,386.162 373.497,389.828 375,393.5C 375.5,395.333 376.667,396.5 378.5,397C 383.902,397.597 388.902,399.264 393.5,402C 397.029,404.577 397.363,407.41 394.5,410.5C 391.437,408.949 388.771,406.782 386.5,404C 382.356,402.734 378.523,400.901 375,398.5C 371.882,392.599 369.049,386.599 366.5,380.5C 369.271,378.233 371.938,375.733 374.5,373C 375.437,372.308 376.103,372.475 376.5,373.5 Z"/></g>
<g><path style="opacity:1" fill="#f8cc95" d="M 310.5,386.5 C 310.318,388.591 310.652,390.591 311.5,392.5C 310.675,393.386 309.675,393.719 308.5,393.5C 308.822,395.722 308.155,397.556 306.5,399C 306.833,399.333 307.167,399.667 307.5,400C 304.058,403.054 300.058,405.054 295.5,406C 287.688,406.053 280.021,407.053 272.5,409C 271.177,409.816 270.511,410.983 270.5,412.5C 269.833,412.5 269.167,412.5 268.5,412.5C 269.788,408.718 272.455,406.551 276.5,406C 283.449,404.878 290.449,404.211 297.5,404C 299.246,403.529 300.913,402.862 302.5,402C 305.339,396.819 308.006,391.653 310.5,386.5 Z"/></g>
<g><path style="opacity:1" fill="#fae9d4" d="M 268.5,412.5 C 269.167,412.5 269.833,412.5 270.5,412.5C 274.907,413.139 279.241,414.139 283.5,415.5C 281.361,418.738 279.694,422.238 278.5,426C 276.305,427.373 273.971,427.706 271.5,427C 264.688,423.444 263.688,418.61 268.5,412.5 Z"/></g>
<g><path style="opacity:1" fill="#ebceaf" d="M 479.5,380.5 C 481.335,381.122 482.502,382.456 483,384.5C 483.497,387.146 483.664,389.813 483.5,392.5C 478.132,397.355 472.299,401.689 466,405.5C 463.612,411.105 461.112,416.605 458.5,422C 452.92,423.517 447.253,423.851 441.5,423C 440.419,421.289 440.752,419.789 442.5,418.5C 447.179,418.666 451.845,418.499 456.5,418C 457.333,417.167 458.167,416.333 459,415.5C 460.135,411.095 461.468,406.762 463,402.5C 469.101,395.572 474.601,388.239 479.5,380.5 Z"/></g>
<g><path style="opacity:1" fill="#edcfb6" d="M 436.5,419.5 C 436.586,420.496 436.252,421.329 435.5,422C 432.304,422.805 429.304,422.638 426.5,421.5C 426.5,420.5 426.5,419.5 426.5,418.5C 430.042,418.187 433.375,418.521 436.5,419.5 Z"/></g>
<g><path style="opacity:1" fill="#7e7b71" d="M 798.5,-0.5 C 798.833,-0.5 799.167,-0.5 799.5,-0.5C 799.5,199.5 799.5,399.5 799.5,599.5C 532.833,599.5 266.167,599.5 -0.5,599.5C -0.5,599.167 -0.5,598.833 -0.5,598.5C 265.833,598.5 532.167,598.5 798.5,598.5C 798.5,398.833 798.5,199.167 798.5,-0.5 Z"/></g>
</svg>
