<?xml version="1.0" encoding="UTF-8"?>
<!DOCTYPE svg PUBLIC "-//W3C//DTD SVG 1.1//EN" "http://www.w3.org/Graphics/SVG/1.1/DTD/svg11.dtd">
<svg xmlns="http://www.w3.org/2000/svg" version="1.1" width="800px" height="600px" style="shape-rendering:geometricPrecision; text-rendering:geometricPrecision; image-rendering:optimizeQuality; fill-rule:evenodd; clip-rule:evenodd" xmlns:xlink="http://www.w3.org/1999/xlink">
<g><path style="opacity:1" fill="#ffd9d9" d="M -0.5,-0.5 C 266.167,-0.5 532.833,-0.5 799.5,-0.5C 799.5,199.5 799.5,399.5 799.5,599.5C 532.833,599.5 266.167,599.5 -0.5,599.5C -0.5,399.5 -0.5,199.5 -0.5,-0.5 Z"/></g>
<g><path style="opacity:1" fill="#fea104" d="M 405.5,239.5 C 397.462,239.101 390.962,242.101 386,248.5C 382.257,256.986 378.257,265.319 374,273.5C 365.887,281.979 356.054,284.812 344.5,282C 335.149,280.161 325.815,278.328 316.5,276.5C 316.001,270.653 313.001,266.82 307.5,265C 300.392,264.076 293.392,264.409 286.5,266C 282.808,268.55 281.142,272.05 281.5,276.5C 270.826,278.223 260.159,280.057 249.5,282C 238.636,284.379 229.802,281.213 223,272.5C 219.193,264.081 215.193,255.747 211,247.5C 207.394,243.447 202.894,241.114 197.5,240.5C 195.5,239.833 193.5,239.167 191.5,238.5C 190.849,196.556 197.682,155.889 212,116.5C 216.417,107.718 223.25,105.218 232.5,109C 245.076,121.235 255.743,134.901 264.5,150C 270.381,148.437 276.381,146.937 282.5,145.5C 294.183,144.139 305.85,144.306 317.5,146C 322.791,147.151 327.791,148.985 332.5,151.5C 341.398,135.761 352.398,121.594 365.5,109C 373.567,105.675 380.067,107.509 385,114.5C 400.728,154.868 407.562,196.535 405.5,239.5 Z"/></g>
<g><path style="opacity:1" fill="#fffdfa" d="M 227.5,136.5 C 229.655,136.372 231.655,136.872 233.5,138C 240.246,144.071 245.412,151.238 249,159.5C 250.464,168.103 248.464,175.77 243,182.5C 235.5,190 228,197.5 220.5,205C 218.559,205.743 216.726,205.576 215,204.5C 214.324,182.222 217.657,160.555 225,139.5C 226.045,138.627 226.878,137.627 227.5,136.5 Z"/></g>
<g><path style="opacity:1" fill="#fffdf9" d="M 368.5,136.5 C 371.325,136.081 373.491,137.081 375,139.5C 381.208,159.042 385.042,179.042 386.5,199.5C 386.662,204.504 384.329,206.338 379.5,205C 369.932,196.102 361.099,186.602 353,176.5C 349.723,169.14 349.723,161.806 353,154.5C 357.687,147.988 362.854,141.988 368.5,136.5 Z"/></g>
<g><path style="opacity:1" fill="#fefcfa" d="M 272.5,248.5 C 268.476,232.629 258.143,225.295 241.5,226.5C 238.227,211.279 244.227,205.779 259.5,210C 276.81,215.798 283.976,227.631 281,245.5C 278.695,247.93 275.862,248.93 272.5,248.5 Z"/></g>
<g><path style="opacity:1" fill="#fdfcfb" d="M 355.5,227.5 C 338.802,225.227 328.802,232.227 325.5,248.5C 318.262,248.761 314.928,245.261 315.5,238C 316.445,224.104 323.445,214.771 336.5,210C 341.833,209.333 347.167,209.333 352.5,210C 354.333,210.5 355.5,211.667 356,213.5C 356.648,218.204 356.481,222.871 355.5,227.5 Z"/></g>
<g><path style="opacity:1" fill="#fea001" d="M 532.5,500.5 C 531.622,505.229 528.956,508.729 524.5,511C 513.167,511.667 501.833,511.667 490.5,511C 486.42,507.647 485.42,503.48 487.5,498.5C 490.146,493.007 494.479,489.673 500.5,488.5C 492,473.5 483.5,458.5 475,443.5C 470.934,442.536 466.767,442.203 462.5,442.5C 443.5,442.5 424.5,442.5 405.5,442.5C 398.5,442.5 391.5,442.5 384.5,442.5C 381.725,460.817 379.058,479.15 376.5,497.5C 375.372,502.062 374.705,506.728 374.5,511.5C 359.163,511.667 343.83,511.5 328.5,511C 324.01,507.562 323.344,503.395 326.5,498.5C 330.69,490.405 337.357,487.071 346.5,488.5C 344.995,474.467 343.162,460.467 341,446.5C 340.501,441.511 340.334,436.511 340.5,431.5C 340.941,424.608 343.108,418.275 347,412.5C 352.634,405.864 358.634,399.531 365,393.5C 371.716,384.313 374.883,373.98 374.5,362.5C 380.922,357.443 387.589,352.61 394.5,348C 404.787,339.924 410.787,329.424 412.5,316.5C 413.483,312.702 413.817,308.702 413.5,304.5C 419.026,304.821 424.36,304.488 429.5,303.5C 437.827,303.171 445.493,300.837 452.5,296.5C 455.849,323.714 469.849,343.214 494.5,355C 503.453,356.277 509.619,352.777 513,344.5C 513.333,332.5 513.667,320.5 514,308.5C 517.158,297.342 524.325,290.175 535.5,287C 540.833,286.667 546.167,286.333 551.5,286C 552.935,283.733 552.602,281.733 550.5,280C 528.829,277.245 514.329,286.079 507,306.5C 506.667,318.833 506.333,331.167 506,343.5C 503.045,347.277 499.212,348.443 494.5,347C 472.609,335.071 460.942,316.571 459.5,291.5C 465.995,283.511 470.662,274.511 473.5,264.5C 473.594,262.088 472.594,260.255 470.5,259C 465.882,258.006 461.215,257.506 456.5,257.5C 465.691,231.812 483.691,216.312 510.5,211C 536.782,206.324 561.116,210.991 583.5,225C 612.892,249.38 621.725,279.88 610,316.5C 602.316,336.851 588.483,351.351 568.5,360C 563.337,362.124 558.004,363.624 552.5,364.5C 553.031,374.371 551.864,384.038 549,393.5C 541.434,414.197 534.268,435.031 527.5,456C 527.439,457.711 528.106,459.044 529.5,460C 534.576,461.999 537.909,465.499 539.5,470.5C 536.847,480.446 534.513,490.446 532.5,500.5 Z"/></g>
<g><path style="opacity:1" fill="#482006" d="M 241.5,226.5 C 258.143,225.295 268.476,232.629 272.5,248.5C 272.582,255.778 269.915,257.112 264.5,252.5C 249.01,259.167 240.176,254.167 238,237.5C 235.242,236.883 232.409,236.716 229.5,237C 226.808,234.368 227.141,232.034 230.5,230C 234.673,229.671 238.34,228.504 241.5,226.5 Z"/></g>
<g><path style="opacity:1" fill="#472005" d="M 355.5,227.5 C 359.52,229.295 363.853,230.462 368.5,231C 369.935,233.267 369.602,235.267 367.5,237C 365.101,237.711 362.768,237.544 360.5,236.5C 358.297,253.097 349.297,258.764 333.5,253.5C 327.865,256.885 325.199,255.218 325.5,248.5C 328.802,232.227 338.802,225.227 355.5,227.5 Z"/></g>
<g><path style="opacity:1" fill="#9d0c20" d="M 449.5,247.5 C 449.5,251.167 449.5,254.833 449.5,258.5C 438.125,259.938 428.625,264.938 421,273.5C 418.304,277.68 415.47,281.68 412.5,285.5C 413.795,276.829 413.795,268.162 412.5,259.5C 419.456,249.381 428.456,241.547 439.5,236C 446.743,236.091 450.077,239.924 449.5,247.5 Z"/></g>
<g><path style="opacity:1" fill="#ffd48d" d="M 191.5,238.5 C 193.5,239.167 195.5,239.833 197.5,240.5C 195.167,240.5 192.833,240.5 190.5,240.5C 190.328,239.508 190.662,238.842 191.5,238.5 Z"/></g>
<g><path style="opacity:1" fill="#fefdfd" d="M 405.5,239.5 C 408.713,245.766 411.046,252.433 412.5,259.5C 413.795,268.162 413.795,276.829 412.5,285.5C 406.349,314.159 389.349,333.325 361.5,343C 324.551,355.147 287.218,356.647 249.5,347.5C 194.346,331.627 174.679,295.961 190.5,240.5C 192.833,240.5 195.167,240.5 197.5,240.5C 202.894,241.114 207.394,243.447 211,247.5C 215.193,255.747 219.193,264.081 223,272.5C 229.802,281.213 238.636,284.379 249.5,282C 260.159,280.057 270.826,278.223 281.5,276.5C 282.465,282.97 286.132,287.136 292.5,289C 284.112,297.935 276.112,297.602 268.5,288C 263.333,286.5 261.5,288.333 263,293.5C 265.921,297.092 269.421,299.925 273.5,302C 277.833,302.667 282.167,302.667 286.5,302C 290.665,300.085 294.665,297.918 298.5,295.5C 302.273,297.43 305.94,299.597 309.5,302C 321.164,304.838 329.83,301.004 335.5,290.5C 335.392,289.558 335.059,288.725 334.5,288C 332.5,287.333 330.5,287.333 328.5,288C 320.649,297.813 312.649,297.98 304.5,288.5C 311.215,287.119 315.215,283.119 316.5,276.5C 325.815,278.328 335.149,280.161 344.5,282C 356.054,284.812 365.887,281.979 374,273.5C 378.257,265.319 382.257,256.986 386,248.5C 390.962,242.101 397.462,239.101 405.5,239.5 Z"/></g>
<g><path style="opacity:1" fill="#cf5a67" d="M 449.5,247.5 C 450.479,250.625 450.813,253.958 450.5,257.5C 452.5,257.5 454.5,257.5 456.5,257.5C 454.393,258.468 452.059,258.802 449.5,258.5C 449.5,254.833 449.5,251.167 449.5,247.5 Z"/></g>
<g><path style="opacity:1" fill="#fe1534" d="M 456.5,257.5 C 461.215,257.506 465.882,258.006 470.5,259C 472.594,260.255 473.594,262.088 473.5,264.5C 470.662,274.511 465.995,283.511 459.5,291.5C 456.888,292.779 454.555,294.445 452.5,296.5C 445.493,300.837 437.827,303.171 429.5,303.5C 423.833,303.5 418.167,303.5 412.5,303.5C 412.5,307.833 412.5,312.167 412.5,316.5C 410.787,329.424 404.787,339.924 394.5,348C 387.589,352.61 380.922,357.443 374.5,362.5C 356.543,374.153 338.877,386.32 321.5,399C 309.472,406.277 297.472,406.277 285.5,399C 278.316,393.248 270.982,387.748 263.5,382.5C 260.206,379.844 256.873,377.178 253.5,374.5C 249.85,365.924 248.516,356.924 249.5,347.5C 287.218,356.647 324.551,355.147 361.5,343C 389.349,333.325 406.349,314.159 412.5,285.5C 415.47,281.68 418.304,277.68 421,273.5C 428.625,264.938 438.125,259.938 449.5,258.5C 452.059,258.802 454.393,258.468 456.5,257.5 Z"/></g>
<g><path style="opacity:1" fill="#472007" d="M 316.5,276.5 C 315.215,283.119 311.215,287.119 304.5,288.5C 312.649,297.98 320.649,297.813 328.5,288C 330.5,287.333 332.5,287.333 334.5,288C 335.059,288.725 335.392,289.558 335.5,290.5C 329.83,301.004 321.164,304.838 309.5,302C 305.94,299.597 302.273,297.43 298.5,295.5C 294.665,297.918 290.665,300.085 286.5,302C 282.167,302.667 277.833,302.667 273.5,302C 269.421,299.925 265.921,297.092 263,293.5C 261.5,288.333 263.333,286.5 268.5,288C 276.112,297.602 284.112,297.935 292.5,289C 286.132,287.136 282.465,282.97 281.5,276.5C 281.142,272.05 282.808,268.55 286.5,266C 293.392,264.409 300.392,264.076 307.5,265C 313.001,266.82 316.001,270.653 316.5,276.5 Z"/></g>
<g><path style="opacity:1" fill="#482003" d="M 452.5,296.5 C 454.555,294.445 456.888,292.779 459.5,291.5C 460.942,316.571 472.609,335.071 494.5,347C 499.212,348.443 503.045,347.277 506,343.5C 506.333,331.167 506.667,318.833 507,306.5C 514.329,286.079 528.829,277.245 550.5,280C 552.602,281.733 552.935,283.733 551.5,286C 546.167,286.333 540.833,286.667 535.5,287C 524.325,290.175 517.158,297.342 514,308.5C 513.667,320.5 513.333,332.5 513,344.5C 509.619,352.777 503.453,356.277 494.5,355C 469.849,343.214 455.849,323.714 452.5,296.5 Z"/></g>
<g><path style="opacity:1" fill="#ff581b" d="M 429.5,303.5 C 424.36,304.488 419.026,304.821 413.5,304.5C 413.817,308.702 413.483,312.702 412.5,316.5C 412.5,312.167 412.5,307.833 412.5,303.5C 418.167,303.5 423.833,303.5 429.5,303.5 Z"/></g>
<g><path style="opacity:1" fill="#fffdfc" d="M 374.5,362.5 C 374.883,373.98 371.716,384.313 365,393.5C 358.634,399.531 352.634,405.864 347,412.5C 343.108,418.275 340.941,424.608 340.5,431.5C 339.518,434.962 339.185,438.629 339.5,442.5C 334.833,442.5 330.167,442.5 325.5,442.5C 325.167,442.5 324.833,442.5 324.5,442.5C 309.006,432.53 293.34,422.696 277.5,413C 268.099,405.029 263.432,394.862 263.5,382.5C 270.982,387.748 278.316,393.248 285.5,399C 297.472,406.277 309.472,406.277 321.5,399C 338.877,386.32 356.543,374.153 374.5,362.5 Z"/></g>
<g><path style="opacity:1" fill="#ffa20e" d="M 253.5,374.5 C 256.873,377.178 260.206,379.844 263.5,382.5C 263.432,394.862 268.099,405.029 277.5,413C 293.34,422.696 309.006,432.53 324.5,442.5C 308.503,444.348 293.837,441.014 280.5,432.5C 260.763,418.339 251.763,399.005 253.5,374.5 Z"/></g>
<g><path style="opacity:1" fill="#e35201" d="M 280.5,432.5 C 293.837,441.014 308.503,444.348 324.5,442.5C 324.833,442.5 325.167,442.5 325.5,442.5C 322.449,460.427 319.782,478.427 317.5,496.5C 316.199,500.943 315.532,505.609 315.5,510.5C 299.83,510.667 284.163,510.5 268.5,510C 265.425,507.398 264.759,504.231 266.5,500.5C 270.335,491.079 277.335,487.079 287.5,488.5C 285.541,469.785 283.207,451.118 280.5,432.5 Z"/></g>
<g><path style="opacity:1" fill="#fed8d6" d="M 340.5,431.5 C 340.334,436.511 340.501,441.511 341,446.5C 343.162,460.467 344.995,474.467 346.5,488.5C 337.357,487.071 330.69,490.405 326.5,498.5C 322.988,499.055 319.988,498.388 317.5,496.5C 319.782,478.427 322.449,460.427 325.5,442.5C 330.167,442.5 334.833,442.5 339.5,442.5C 339.185,438.629 339.518,434.962 340.5,431.5 Z"/></g>
<g><path style="opacity:1" fill="#fed9d8" d="M 405.5,442.5 C 413.648,458.13 422.315,473.464 431.5,488.5C 425.772,489.572 421.439,492.572 418.5,497.5C 404.5,497.5 390.5,497.5 376.5,497.5C 379.058,479.15 381.725,460.817 384.5,442.5C 391.5,442.5 398.5,442.5 405.5,442.5 Z"/></g>
<g><path style="opacity:1" fill="#e35302" d="M 405.5,442.5 C 424.5,442.5 443.5,442.5 462.5,442.5C 459.868,447.558 458.368,452.891 458,458.5C 462.021,460.677 465.688,463.344 469,466.5C 469.875,467.873 470.375,469.373 470.5,471C 468.227,479.87 465.894,488.703 463.5,497.5C 462.516,501.556 460.85,505.39 458.5,509C 457.167,509.667 455.833,510.333 454.5,511C 443.5,511.667 432.5,511.667 421.5,511C 417.383,507.295 416.383,502.795 418.5,497.5C 421.439,492.572 425.772,489.572 431.5,488.5C 422.315,473.464 413.648,458.13 405.5,442.5 Z"/></g>
<g><path style="opacity:1" fill="#fed8d7" d="M 462.5,442.5 C 466.767,442.203 470.934,442.536 475,443.5C 483.5,458.5 492,473.5 500.5,488.5C 494.479,489.673 490.146,493.007 487.5,498.5C 479.316,498.826 471.316,498.492 463.5,497.5C 465.894,488.703 468.227,479.87 470.5,471C 470.375,469.373 469.875,467.873 469,466.5C 465.688,463.344 462.021,460.677 458,458.5C 458.368,452.891 459.868,447.558 462.5,442.5 Z"/></g>
<g><path style="opacity:1" fill="#febbbb" d="M 317.5,496.5 C 319.988,498.388 322.988,499.055 326.5,498.5C 323.344,503.395 324.01,507.562 328.5,511C 343.83,511.5 359.163,511.667 374.5,511.5C 374.705,506.728 375.372,502.062 376.5,497.5C 390.5,497.5 404.5,497.5 418.5,497.5C 416.383,502.795 417.383,507.295 421.5,511C 432.5,511.667 443.5,511.667 454.5,511C 455.833,510.333 457.167,509.667 458.5,509C 460.85,505.39 462.516,501.556 463.5,497.5C 471.316,498.492 479.316,498.826 487.5,498.5C 485.42,503.48 486.42,507.647 490.5,511C 501.833,511.667 513.167,511.667 524.5,511C 528.956,508.729 531.622,505.229 532.5,500.5C 544.352,500.55 556.018,502.05 567.5,505C 571.112,506.08 572.112,508.247 570.5,511.5C 563.133,514.398 555.467,516.231 547.5,517C 498.058,520.007 448.558,521.174 399,520.5C 365.5,520.333 332,520.167 298.5,520C 277.38,519.701 256.38,518.034 235.5,515C 232.488,514.22 229.655,513.053 227,511.5C 225.958,508.196 227.125,506.029 230.5,505C 242.351,502.408 254.351,500.908 266.5,500.5C 264.759,504.231 265.425,507.398 268.5,510C 284.163,510.5 299.83,510.667 315.5,510.5C 315.532,505.609 316.199,500.943 317.5,496.5 Z"/></g>
</svg>
